<?xml version="1.0" encoding="utf-8"?>
<!-- Generator: Adobe Illustrator 25.0.0, SVG Export Plug-In . SVG Version: 6.00 Build 0)  -->
<svg version="1.1" xmlns="http://www.w3.org/2000/svg" xmlns:xlink="http://www.w3.org/1999/xlink" x="0px" y="0px"
	 viewBox="0 0 424 604" style="enable-background:new 0 0 424 604;" xml:space="preserve">
<style type="text/css">
	.st0{fill:#FFFFFF;}
	.st1{fill:url(#SVGID_1_);}
	.st2{clip-path:url(#SVGID_4_);}
	.st3{fill-rule:evenodd;clip-rule:evenodd;fill:#384491;}
	.st4{fill-rule:evenodd;clip-rule:evenodd;fill:url(#SVGID_5_);}
	.st5{clip-path:url(#SVGID_4_);fill-rule:evenodd;clip-rule:evenodd;fill:#374994;}
	.st6{clip-path:url(#SVGID_4_);fill-rule:evenodd;clip-rule:evenodd;fill:#354D96;}
	.st7{clip-path:url(#SVGID_4_);fill-rule:evenodd;clip-rule:evenodd;fill:#335299;}
	.st8{clip-path:url(#SVGID_4_);fill-rule:evenodd;clip-rule:evenodd;fill:#31569C;}
	.st9{clip-path:url(#SVGID_4_);fill-rule:evenodd;clip-rule:evenodd;fill:#2F5A9E;}
	.st10{clip-path:url(#SVGID_4_);fill-rule:evenodd;clip-rule:evenodd;fill:#2C5F9F;}
	.st11{clip-path:url(#SVGID_4_);fill-rule:evenodd;clip-rule:evenodd;fill:#2864A3;}
	.st12{clip-path:url(#SVGID_4_);fill-rule:evenodd;clip-rule:evenodd;fill:#2768A5;}
	.st13{clip-path:url(#SVGID_4_);fill-rule:evenodd;clip-rule:evenodd;fill:#216CA8;}
	.st14{clip-path:url(#SVGID_4_);fill-rule:evenodd;clip-rule:evenodd;fill:#1C70AB;}
	.st15{clip-path:url(#SVGID_4_);fill-rule:evenodd;clip-rule:evenodd;fill:#1773AB;}
	.st16{clip-path:url(#SVGID_4_);fill-rule:evenodd;clip-rule:evenodd;fill:#0F77AE;}
	.st17{clip-path:url(#SVGID_4_);fill-rule:evenodd;clip-rule:evenodd;fill:#0C7BB0;}
	.st18{clip-path:url(#SVGID_4_);fill-rule:evenodd;clip-rule:evenodd;fill:#067FB3;}
	.st19{clip-path:url(#SVGID_4_);fill-rule:evenodd;clip-rule:evenodd;fill:#0484B6;}
	.st20{clip-path:url(#SVGID_4_);fill-rule:evenodd;clip-rule:evenodd;fill:#0388B9;}
	.st21{clip-path:url(#SVGID_4_);fill-rule:evenodd;clip-rule:evenodd;fill:#018DBC;}
	.st22{clip-path:url(#SVGID_4_);fill-rule:evenodd;clip-rule:evenodd;fill:#0091BF;}
	.st23{clip-path:url(#SVGID_4_);fill-rule:evenodd;clip-rule:evenodd;fill:#0095C2;}
	.st24{clip-path:url(#SVGID_4_);fill-rule:evenodd;clip-rule:evenodd;fill:#009AC4;}
	.st25{clip-path:url(#SVGID_4_);fill-rule:evenodd;clip-rule:evenodd;fill:#009AC5;}
	.st26{clip-path:url(#SVGID_4_);fill-rule:evenodd;clip-rule:evenodd;fill:#009BC5;}
	.st27{clip-path:url(#SVGID_4_);fill-rule:evenodd;clip-rule:evenodd;fill:#019CC5;}
	.st28{clip-path:url(#SVGID_4_);fill-rule:evenodd;clip-rule:evenodd;fill:#019DC6;}
	.st29{clip-path:url(#SVGID_4_);fill-rule:evenodd;clip-rule:evenodd;fill:#009DC7;}
	.st30{clip-path:url(#SVGID_4_);fill-rule:evenodd;clip-rule:evenodd;fill:#009EC7;}
	.st31{clip-path:url(#SVGID_4_);fill-rule:evenodd;clip-rule:evenodd;fill:#009FC7;}
	.st32{clip-path:url(#SVGID_4_);fill-rule:evenodd;clip-rule:evenodd;fill:#009FC8;}
	.st33{clip-path:url(#SVGID_4_);fill-rule:evenodd;clip-rule:evenodd;fill:#00A0C8;}
	.st34{clip-path:url(#SVGID_4_);fill-rule:evenodd;clip-rule:evenodd;fill:#00A1C9;}
	.st35{clip-path:url(#SVGID_4_);fill-rule:evenodd;clip-rule:evenodd;fill:#00A2CA;}
	.st36{clip-path:url(#SVGID_4_);fill-rule:evenodd;clip-rule:evenodd;fill:#00A3CA;}
	.st37{clip-path:url(#SVGID_4_);fill-rule:evenodd;clip-rule:evenodd;fill:#00A4CB;}
	.st38{clip-path:url(#SVGID_4_);fill-rule:evenodd;clip-rule:evenodd;fill:#00A5CB;}
	.st39{clip-path:url(#SVGID_4_);fill-rule:evenodd;clip-rule:evenodd;fill:#00A6CC;}
	.st40{clip-path:url(#SVGID_4_);fill-rule:evenodd;clip-rule:evenodd;fill:#00A7CD;}
	.st41{clip-path:url(#SVGID_7_);fill-rule:evenodd;clip-rule:evenodd;fill:#384491;}
	.st42{clip-path:url(#SVGID_7_);fill-rule:evenodd;clip-rule:evenodd;fill:#374994;}
	.st43{clip-path:url(#SVGID_7_);fill-rule:evenodd;clip-rule:evenodd;fill:#354D96;}
	.st44{clip-path:url(#SVGID_7_);fill-rule:evenodd;clip-rule:evenodd;fill:#335299;}
	.st45{clip-path:url(#SVGID_7_);fill-rule:evenodd;clip-rule:evenodd;fill:#31569C;}
	.st46{clip-path:url(#SVGID_7_);fill-rule:evenodd;clip-rule:evenodd;fill:#2F5A9E;}
	.st47{clip-path:url(#SVGID_7_);fill-rule:evenodd;clip-rule:evenodd;fill:#2C5F9F;}
	.st48{clip-path:url(#SVGID_7_);fill-rule:evenodd;clip-rule:evenodd;fill:#2864A3;}
	.st49{clip-path:url(#SVGID_7_);fill-rule:evenodd;clip-rule:evenodd;fill:#2768A5;}
	.st50{clip-path:url(#SVGID_7_);fill-rule:evenodd;clip-rule:evenodd;fill:#216CA8;}
	.st51{clip-path:url(#SVGID_7_);fill-rule:evenodd;clip-rule:evenodd;fill:#1C70AB;}
	.st52{clip-path:url(#SVGID_7_);fill-rule:evenodd;clip-rule:evenodd;fill:#1773AB;}
	.st53{clip-path:url(#SVGID_7_);fill-rule:evenodd;clip-rule:evenodd;fill:#0F77AE;}
	.st54{clip-path:url(#SVGID_7_);fill-rule:evenodd;clip-rule:evenodd;fill:#0C7BB0;}
	.st55{clip-path:url(#SVGID_7_);fill-rule:evenodd;clip-rule:evenodd;fill:#067FB3;}
	.st56{clip-path:url(#SVGID_7_);fill-rule:evenodd;clip-rule:evenodd;fill:#0484B6;}
	.st57{clip-path:url(#SVGID_7_);fill-rule:evenodd;clip-rule:evenodd;fill:#0388B9;}
	.st58{clip-path:url(#SVGID_7_);fill-rule:evenodd;clip-rule:evenodd;fill:#018DBC;}
	.st59{clip-path:url(#SVGID_7_);fill-rule:evenodd;clip-rule:evenodd;fill:#0091BF;}
	.st60{clip-path:url(#SVGID_7_);fill-rule:evenodd;clip-rule:evenodd;fill:#0095C2;}
	.st61{clip-path:url(#SVGID_7_);fill-rule:evenodd;clip-rule:evenodd;fill:#009AC4;}
	.st62{clip-path:url(#SVGID_7_);fill-rule:evenodd;clip-rule:evenodd;fill:#009AC5;}
	.st63{clip-path:url(#SVGID_7_);fill-rule:evenodd;clip-rule:evenodd;fill:#009BC5;}
	.st64{clip-path:url(#SVGID_7_);fill-rule:evenodd;clip-rule:evenodd;fill:#019CC5;}
	.st65{clip-path:url(#SVGID_7_);fill-rule:evenodd;clip-rule:evenodd;fill:#019DC6;}
	.st66{clip-path:url(#SVGID_7_);fill-rule:evenodd;clip-rule:evenodd;fill:#009DC7;}
	.st67{clip-path:url(#SVGID_7_);fill-rule:evenodd;clip-rule:evenodd;fill:#009EC7;}
	.st68{clip-path:url(#SVGID_7_);fill-rule:evenodd;clip-rule:evenodd;fill:#009FC7;}
	.st69{clip-path:url(#SVGID_7_);fill-rule:evenodd;clip-rule:evenodd;fill:#009FC8;}
	.st70{clip-path:url(#SVGID_7_);fill-rule:evenodd;clip-rule:evenodd;fill:#00A0C8;}
	.st71{clip-path:url(#SVGID_7_);fill-rule:evenodd;clip-rule:evenodd;fill:#00A1C9;}
	.st72{clip-path:url(#SVGID_7_);fill-rule:evenodd;clip-rule:evenodd;fill:#00A2CA;}
	.st73{clip-path:url(#SVGID_7_);fill-rule:evenodd;clip-rule:evenodd;fill:#00A3CA;}
	.st74{clip-path:url(#SVGID_7_);fill-rule:evenodd;clip-rule:evenodd;fill:#00A4CB;}
	.st75{clip-path:url(#SVGID_7_);fill-rule:evenodd;clip-rule:evenodd;fill:#00A5CB;}
	.st76{clip-path:url(#SVGID_7_);fill-rule:evenodd;clip-rule:evenodd;fill:#00A6CC;}
	.st77{clip-path:url(#SVGID_7_);fill-rule:evenodd;clip-rule:evenodd;fill:#00A7CD;}
	.st78{clip-path:url(#SVGID_9_);fill-rule:evenodd;clip-rule:evenodd;fill:url(#SVGID_10_);}
	.st79{clip-path:url(#SVGID_9_);fill-rule:evenodd;clip-rule:evenodd;fill:#374994;}
	.st80{clip-path:url(#SVGID_9_);fill-rule:evenodd;clip-rule:evenodd;fill:#354D96;}
	.st81{clip-path:url(#SVGID_9_);fill-rule:evenodd;clip-rule:evenodd;fill:#335299;}
	.st82{clip-path:url(#SVGID_9_);fill-rule:evenodd;clip-rule:evenodd;fill:#31569C;}
	.st83{clip-path:url(#SVGID_9_);fill-rule:evenodd;clip-rule:evenodd;fill:#2F5A9E;}
	.st84{clip-path:url(#SVGID_9_);fill-rule:evenodd;clip-rule:evenodd;fill:#2C5F9F;}
	.st85{clip-path:url(#SVGID_9_);fill-rule:evenodd;clip-rule:evenodd;fill:#2864A3;}
	.st86{clip-path:url(#SVGID_9_);fill-rule:evenodd;clip-rule:evenodd;fill:#2768A5;}
	.st87{clip-path:url(#SVGID_9_);fill-rule:evenodd;clip-rule:evenodd;fill:#216CA8;}
	.st88{clip-path:url(#SVGID_9_);fill-rule:evenodd;clip-rule:evenodd;fill:#1C70AB;}
	.st89{clip-path:url(#SVGID_9_);fill-rule:evenodd;clip-rule:evenodd;fill:#1773AB;}
	.st90{clip-path:url(#SVGID_9_);fill-rule:evenodd;clip-rule:evenodd;fill:#0F77AE;}
	.st91{clip-path:url(#SVGID_9_);fill-rule:evenodd;clip-rule:evenodd;fill:#0C7BB0;}
	.st92{clip-path:url(#SVGID_9_);fill-rule:evenodd;clip-rule:evenodd;fill:#067FB3;}
	.st93{clip-path:url(#SVGID_9_);fill-rule:evenodd;clip-rule:evenodd;fill:#0484B6;}
	.st94{clip-path:url(#SVGID_9_);fill-rule:evenodd;clip-rule:evenodd;fill:#0388B9;}
	.st95{clip-path:url(#SVGID_9_);fill-rule:evenodd;clip-rule:evenodd;fill:#018DBC;}
	.st96{clip-path:url(#SVGID_9_);fill-rule:evenodd;clip-rule:evenodd;fill:#0091BF;}
	.st97{clip-path:url(#SVGID_9_);fill-rule:evenodd;clip-rule:evenodd;fill:#0095C2;}
	.st98{clip-path:url(#SVGID_9_);fill-rule:evenodd;clip-rule:evenodd;fill:#009AC4;}
	.st99{clip-path:url(#SVGID_9_);fill-rule:evenodd;clip-rule:evenodd;fill:#009AC5;}
	.st100{clip-path:url(#SVGID_9_);fill-rule:evenodd;clip-rule:evenodd;fill:#009BC5;}
	.st101{clip-path:url(#SVGID_9_);fill-rule:evenodd;clip-rule:evenodd;fill:#019CC5;}
	.st102{clip-path:url(#SVGID_9_);fill-rule:evenodd;clip-rule:evenodd;fill:#019DC6;}
	.st103{clip-path:url(#SVGID_9_);fill-rule:evenodd;clip-rule:evenodd;fill:#009DC7;}
	.st104{clip-path:url(#SVGID_9_);fill-rule:evenodd;clip-rule:evenodd;fill:#009EC7;}
	.st105{clip-path:url(#SVGID_9_);fill-rule:evenodd;clip-rule:evenodd;fill:#009FC7;}
	.st106{clip-path:url(#SVGID_9_);fill-rule:evenodd;clip-rule:evenodd;fill:#009FC8;}
	.st107{clip-path:url(#SVGID_9_);fill-rule:evenodd;clip-rule:evenodd;fill:#00A0C8;}
	.st108{clip-path:url(#SVGID_9_);fill-rule:evenodd;clip-rule:evenodd;fill:#00A1C9;}
	.st109{clip-path:url(#SVGID_9_);fill-rule:evenodd;clip-rule:evenodd;fill:#00A2CA;}
	.st110{clip-path:url(#SVGID_9_);fill-rule:evenodd;clip-rule:evenodd;fill:#00A3CA;}
	.st111{clip-path:url(#SVGID_9_);fill-rule:evenodd;clip-rule:evenodd;fill:#00A4CB;}
	.st112{clip-path:url(#SVGID_9_);fill-rule:evenodd;clip-rule:evenodd;fill:#00A5CB;}
	.st113{clip-path:url(#SVGID_9_);fill-rule:evenodd;clip-rule:evenodd;fill:#00A6CC;}
	.st114{clip-path:url(#SVGID_9_);fill-rule:evenodd;clip-rule:evenodd;fill:#00A7CD;}
	.st115{fill:#2D4799;}
	.st116{fill-rule:evenodd;clip-rule:evenodd;fill:#1A86BC;}
	.st117{fill-rule:evenodd;clip-rule:evenodd;fill:#FFFFFF;}
	.st118{fill:url(#SVGID_11_);}
	.st119{fill:#FFD200;}
	.st120{fill:url(#SVGID_12_);}
	.st121{fill:url(#SVGID_13_);}
	.st122{fill:url(#SVGID_14_);}
	.st123{fill:none;stroke:#000000;stroke-width:3.9837;stroke-miterlimit:10;}
	.st124{fill:none;stroke:#000000;stroke-width:4;stroke-miterlimit:10;}
	.st125{fill-rule:evenodd;clip-rule:evenodd;fill:none;stroke:#000000;stroke-width:4;stroke-miterlimit:10;}
	.st126{fill-rule:evenodd;clip-rule:evenodd;}
	.st127{fill:none;stroke:#FFFFFF;stroke-width:3.9837;stroke-miterlimit:10;}
	.st128{fill:none;stroke:#FFFFFF;stroke-width:4;stroke-miterlimit:10;}
	.st129{fill-rule:evenodd;clip-rule:evenodd;fill:none;stroke:#FFFFFF;stroke-width:4;stroke-miterlimit:10;}
	.st130{fill:none;stroke:#233370;stroke-width:3.9837;stroke-miterlimit:10;}
	.st131{fill:#233370;}
	.st132{fill:none;stroke:#233370;stroke-width:4;stroke-miterlimit:10;}
	.st133{fill-rule:evenodd;clip-rule:evenodd;fill:none;stroke:#233370;stroke-width:4;stroke-miterlimit:10;}
	.st134{fill-rule:evenodd;clip-rule:evenodd;fill:#233370;}
	.st135{clip-path:url(#SVGID_16_);}
	.st136{fill:#19499C;}
	.st137{fill-rule:evenodd;clip-rule:evenodd;fill:#374994;}
	.st138{fill-rule:evenodd;clip-rule:evenodd;fill:#354D96;}
	.st139{fill-rule:evenodd;clip-rule:evenodd;fill:#335299;}
	.st140{fill-rule:evenodd;clip-rule:evenodd;fill:#31569C;}
	.st141{fill-rule:evenodd;clip-rule:evenodd;fill:#2F5A9E;}
	.st142{fill-rule:evenodd;clip-rule:evenodd;fill:#2C5F9F;}
	.st143{fill-rule:evenodd;clip-rule:evenodd;fill:#2864A3;}
	.st144{fill-rule:evenodd;clip-rule:evenodd;fill:#2768A5;}
	.st145{fill-rule:evenodd;clip-rule:evenodd;fill:#216CA8;}
	.st146{fill-rule:evenodd;clip-rule:evenodd;fill:#1C70AB;}
	.st147{fill-rule:evenodd;clip-rule:evenodd;fill:#1773AB;}
	.st148{fill-rule:evenodd;clip-rule:evenodd;fill:#0F77AE;}
	.st149{fill-rule:evenodd;clip-rule:evenodd;fill:#0C7BB0;}
	.st150{fill-rule:evenodd;clip-rule:evenodd;fill:#067FB3;}
	.st151{fill-rule:evenodd;clip-rule:evenodd;fill:#0484B6;}
	.st152{fill-rule:evenodd;clip-rule:evenodd;fill:#0388B9;}
	.st153{fill-rule:evenodd;clip-rule:evenodd;fill:#018DBC;}
	.st154{fill-rule:evenodd;clip-rule:evenodd;fill:#0091BF;}
	.st155{fill-rule:evenodd;clip-rule:evenodd;fill:#0095C2;}
	.st156{fill-rule:evenodd;clip-rule:evenodd;fill:#009AC4;}
	.st157{fill-rule:evenodd;clip-rule:evenodd;fill:#009AC5;}
	.st158{fill-rule:evenodd;clip-rule:evenodd;fill:#009BC5;}
	.st159{fill-rule:evenodd;clip-rule:evenodd;fill:#019CC5;}
	.st160{fill-rule:evenodd;clip-rule:evenodd;fill:#019DC6;}
	.st161{fill-rule:evenodd;clip-rule:evenodd;fill:#009DC7;}
	.st162{fill-rule:evenodd;clip-rule:evenodd;fill:#009EC7;}
	.st163{fill-rule:evenodd;clip-rule:evenodd;fill:#009FC7;}
	.st164{fill-rule:evenodd;clip-rule:evenodd;fill:#009FC8;}
	.st165{fill-rule:evenodd;clip-rule:evenodd;fill:#00A0C8;}
	.st166{fill-rule:evenodd;clip-rule:evenodd;fill:#00A1C9;}
	.st167{fill-rule:evenodd;clip-rule:evenodd;fill:#00A2CA;}
	.st168{fill-rule:evenodd;clip-rule:evenodd;fill:#00A3CA;}
	.st169{fill-rule:evenodd;clip-rule:evenodd;fill:#00A4CB;}
	.st170{fill-rule:evenodd;clip-rule:evenodd;fill:#00A5CB;}
	.st171{fill-rule:evenodd;clip-rule:evenodd;fill:#00A6CC;}
	.st172{fill-rule:evenodd;clip-rule:evenodd;fill:#00A7CD;}
	.st173{clip-path:url(#SVGID_18_);fill-rule:evenodd;clip-rule:evenodd;fill:#384491;}
	.st174{clip-path:url(#SVGID_18_);fill-rule:evenodd;clip-rule:evenodd;fill:#374994;}
	.st175{clip-path:url(#SVGID_18_);fill-rule:evenodd;clip-rule:evenodd;fill:#354D96;}
	.st176{clip-path:url(#SVGID_18_);fill-rule:evenodd;clip-rule:evenodd;fill:#335299;}
	.st177{clip-path:url(#SVGID_18_);fill-rule:evenodd;clip-rule:evenodd;fill:#31569C;}
	.st178{clip-path:url(#SVGID_18_);fill-rule:evenodd;clip-rule:evenodd;fill:#2F5A9E;}
	.st179{clip-path:url(#SVGID_18_);fill-rule:evenodd;clip-rule:evenodd;fill:#2C5F9F;}
	.st180{clip-path:url(#SVGID_18_);fill-rule:evenodd;clip-rule:evenodd;fill:#2864A3;}
	.st181{clip-path:url(#SVGID_18_);fill-rule:evenodd;clip-rule:evenodd;fill:#2768A5;}
	.st182{clip-path:url(#SVGID_18_);fill-rule:evenodd;clip-rule:evenodd;fill:#216CA8;}
	.st183{clip-path:url(#SVGID_18_);fill-rule:evenodd;clip-rule:evenodd;fill:#1C70AB;}
	.st184{clip-path:url(#SVGID_18_);fill-rule:evenodd;clip-rule:evenodd;fill:#1773AB;}
	.st185{clip-path:url(#SVGID_18_);fill-rule:evenodd;clip-rule:evenodd;fill:#0F77AE;}
	.st186{clip-path:url(#SVGID_18_);fill-rule:evenodd;clip-rule:evenodd;fill:#0C7BB0;}
	.st187{clip-path:url(#SVGID_18_);fill-rule:evenodd;clip-rule:evenodd;fill:#067FB3;}
	.st188{clip-path:url(#SVGID_18_);fill-rule:evenodd;clip-rule:evenodd;fill:#0484B6;}
	.st189{clip-path:url(#SVGID_18_);fill-rule:evenodd;clip-rule:evenodd;fill:#0388B9;}
	.st190{clip-path:url(#SVGID_18_);fill-rule:evenodd;clip-rule:evenodd;fill:#018DBC;}
	.st191{clip-path:url(#SVGID_18_);fill-rule:evenodd;clip-rule:evenodd;fill:#0091BF;}
	.st192{clip-path:url(#SVGID_18_);fill-rule:evenodd;clip-rule:evenodd;fill:#0095C2;}
	.st193{clip-path:url(#SVGID_18_);fill-rule:evenodd;clip-rule:evenodd;fill:#009AC4;}
	.st194{clip-path:url(#SVGID_18_);fill-rule:evenodd;clip-rule:evenodd;fill:#009AC5;}
	.st195{clip-path:url(#SVGID_18_);fill-rule:evenodd;clip-rule:evenodd;fill:#009BC5;}
	.st196{clip-path:url(#SVGID_18_);fill-rule:evenodd;clip-rule:evenodd;fill:#019CC5;}
	.st197{clip-path:url(#SVGID_18_);fill-rule:evenodd;clip-rule:evenodd;fill:#019DC6;}
	.st198{clip-path:url(#SVGID_18_);fill-rule:evenodd;clip-rule:evenodd;fill:#009DC7;}
	.st199{clip-path:url(#SVGID_18_);fill-rule:evenodd;clip-rule:evenodd;fill:#009EC7;}
	.st200{clip-path:url(#SVGID_18_);fill-rule:evenodd;clip-rule:evenodd;fill:#009FC7;}
	.st201{clip-path:url(#SVGID_18_);fill-rule:evenodd;clip-rule:evenodd;fill:#009FC8;}
	.st202{clip-path:url(#SVGID_18_);fill-rule:evenodd;clip-rule:evenodd;fill:#00A0C8;}
	.st203{clip-path:url(#SVGID_18_);fill-rule:evenodd;clip-rule:evenodd;fill:#00A1C9;}
	.st204{clip-path:url(#SVGID_18_);fill-rule:evenodd;clip-rule:evenodd;fill:#00A2CA;}
	.st205{clip-path:url(#SVGID_18_);fill-rule:evenodd;clip-rule:evenodd;fill:#00A3CA;}
	.st206{clip-path:url(#SVGID_18_);fill-rule:evenodd;clip-rule:evenodd;fill:#00A4CB;}
	.st207{clip-path:url(#SVGID_18_);fill-rule:evenodd;clip-rule:evenodd;fill:#00A5CB;}
	.st208{clip-path:url(#SVGID_18_);fill-rule:evenodd;clip-rule:evenodd;fill:#00A6CC;}
	.st209{clip-path:url(#SVGID_18_);fill-rule:evenodd;clip-rule:evenodd;fill:#00A7CD;}
	.st210{clip-path:url(#SVGID_20_);}
	.st211{clip-path:url(#SVGID_22_);fill:#19499C;}
	.st212{clip-path:url(#SVGID_22_);fill:#194A9D;}
	.st213{clip-path:url(#SVGID_22_);fill:#194B9D;}
	.st214{clip-path:url(#SVGID_22_);fill:#194C9E;}
	.st215{clip-path:url(#SVGID_22_);fill:#194D9F;}
	.st216{clip-path:url(#SVGID_22_);fill:#194EA0;}
	.st217{clip-path:url(#SVGID_22_);fill:#194FA0;}
	.st218{clip-path:url(#SVGID_22_);fill:#1950A1;}
	.st219{clip-path:url(#SVGID_22_);fill:#1951A2;}
	.st220{clip-path:url(#SVGID_22_);fill:#1952A3;}
	.st221{clip-path:url(#SVGID_22_);fill:#1853A3;}
	.st222{clip-path:url(#SVGID_22_);fill:#1854A4;}
	.st223{clip-path:url(#SVGID_22_);fill:#1855A5;}
	.st224{clip-path:url(#SVGID_22_);fill:#1856A5;}
	.st225{clip-path:url(#SVGID_22_);fill:#1857A6;}
	.st226{clip-path:url(#SVGID_22_);fill:#1858A7;}
	.st227{clip-path:url(#SVGID_22_);fill:#1859A8;}
	.st228{clip-path:url(#SVGID_22_);fill:#185AA8;}
	.st229{clip-path:url(#SVGID_22_);fill:#185BA9;}
	.st230{clip-path:url(#SVGID_22_);fill:#185CAA;}
	.st231{clip-path:url(#SVGID_22_);fill:#185DAB;}
	.st232{clip-path:url(#SVGID_22_);fill:#185EAB;}
	.st233{clip-path:url(#SVGID_22_);fill:#185FAC;}
	.st234{clip-path:url(#SVGID_22_);fill:#1860AD;}
	.st235{clip-path:url(#SVGID_22_);fill:#1861AD;}
	.st236{clip-path:url(#SVGID_22_);fill:#1862AE;}
	.st237{clip-path:url(#SVGID_22_);fill:#1863AF;}
	.st238{clip-path:url(#SVGID_22_);fill:#1864B0;}
	.st239{clip-path:url(#SVGID_22_);fill:#1865B0;}
	.st240{clip-path:url(#SVGID_22_);fill:#1866B1;}
	.st241{clip-path:url(#SVGID_22_);fill:#1767B2;}
	.st242{clip-path:url(#SVGID_22_);fill:#1768B3;}
	.st243{clip-path:url(#SVGID_22_);fill:#1769B3;}
	.st244{clip-path:url(#SVGID_22_);fill:#176AB4;}
	.st245{clip-path:url(#SVGID_22_);fill:#176BB5;}
	.st246{clip-path:url(#SVGID_22_);fill:#176CB5;}
	.st247{clip-path:url(#SVGID_22_);fill:#176DB6;}
	.st248{clip-path:url(#SVGID_22_);fill:#176EB7;}
	.st249{clip-path:url(#SVGID_22_);fill:#176FB8;}
	.st250{clip-path:url(#SVGID_22_);fill:#1770B8;}
	.st251{clip-path:url(#SVGID_22_);fill:#1771B9;}
	.st252{clip-path:url(#SVGID_22_);fill:#1772BA;}
	.st253{clip-path:url(#SVGID_22_);fill:#1773BB;}
	.st254{clip-path:url(#SVGID_22_);fill:#1774BB;}
	.st255{clip-path:url(#SVGID_22_);fill:#1775BC;}
	.st256{clip-path:url(#SVGID_22_);fill:#1776BD;}
	.st257{clip-path:url(#SVGID_22_);fill:#1777BD;}
	.st258{clip-path:url(#SVGID_22_);fill:#1778BE;}
	.st259{clip-path:url(#SVGID_22_);fill:#1779BF;}
	.st260{clip-path:url(#SVGID_22_);fill:#167AC0;}
	.st261{clip-path:url(#SVGID_22_);fill:#167BC0;}
	.st262{clip-path:url(#SVGID_22_);fill:#167CC1;}
	.st263{clip-path:url(#SVGID_22_);fill:#167DC2;}
	.st264{clip-path:url(#SVGID_22_);fill:#167EC3;}
	.st265{clip-path:url(#SVGID_22_);fill:#167FC3;}
	.st266{clip-path:url(#SVGID_22_);fill:#1680C4;}
	.st267{clip-path:url(#SVGID_22_);fill:#1681C5;}
	.st268{clip-path:url(#SVGID_22_);fill:#1682C5;}
	.st269{clip-path:url(#SVGID_22_);fill:#1683C6;}
	.st270{clip-path:url(#SVGID_22_);fill:#1685C7;}
	.st271{clip-path:url(#SVGID_22_);fill:#1686C8;}
	.st272{clip-path:url(#SVGID_22_);fill:#1687C8;}
	.st273{clip-path:url(#SVGID_22_);fill:#1688C9;}
	.st274{clip-path:url(#SVGID_22_);fill:#1689CA;}
	.st275{clip-path:url(#SVGID_22_);fill:#168ACA;}
	.st276{clip-path:url(#SVGID_22_);fill:#168BCB;}
	.st277{clip-path:url(#SVGID_22_);fill:#168CCC;}
	.st278{clip-path:url(#SVGID_22_);fill:#168DCD;}
	.st279{clip-path:url(#SVGID_22_);fill:#168ECD;}
	.st280{clip-path:url(#SVGID_22_);fill:#158FCE;}
	.st281{clip-path:url(#SVGID_22_);fill:#1590CF;}
	.st282{clip-path:url(#SVGID_22_);fill:#1591D0;}
	.st283{clip-path:url(#SVGID_22_);fill:#1592D0;}
	.st284{clip-path:url(#SVGID_22_);fill:#1593D1;}
	.st285{clip-path:url(#SVGID_22_);fill:#1594D2;}
	.st286{clip-path:url(#SVGID_22_);fill:#1595D2;}
	.st287{clip-path:url(#SVGID_22_);fill:#1596D3;}
	.st288{clip-path:url(#SVGID_22_);fill:#1597D4;}
	.st289{clip-path:url(#SVGID_22_);fill:#1598D5;}
	.st290{clip-path:url(#SVGID_22_);fill:#1599D5;}
	.st291{clip-path:url(#SVGID_22_);fill:#159AD6;}
	.st292{clip-path:url(#SVGID_22_);fill:#159BD7;}
	.st293{clip-path:url(#SVGID_22_);fill:#159CD8;}
	.st294{clip-path:url(#SVGID_22_);fill:#159DD8;}
	.st295{clip-path:url(#SVGID_22_);fill:#159ED9;}
	.st296{clip-path:url(#SVGID_22_);fill:#159FDA;}
	.st297{clip-path:url(#SVGID_22_);fill:#15A0DA;}
	.st298{clip-path:url(#SVGID_22_);fill:#15A1DB;}
	.st299{clip-path:url(#SVGID_22_);fill:#14A2DC;}
	.st300{clip-path:url(#SVGID_22_);fill:#14A3DD;}
	.st301{clip-path:url(#SVGID_22_);fill:#14A4DD;}
	.st302{clip-path:url(#SVGID_22_);fill:#14A5DE;}
	.st303{clip-path:url(#SVGID_22_);fill:#14A6DF;}
	.st304{clip-path:url(#SVGID_22_);fill:#14A7E0;}
	.st305{clip-path:url(#SVGID_22_);fill:#14A8E0;}
	.st306{clip-path:url(#SVGID_22_);fill:#14A9E1;}
	.st307{clip-path:url(#SVGID_22_);fill:#14AAE2;}
	.st308{clip-path:url(#SVGID_22_);fill:#14ABE2;}
	.st309{clip-path:url(#SVGID_22_);fill:#14ACE3;}
	.st310{clip-path:url(#SVGID_22_);fill:#14ADE4;}
	.st311{clip-path:url(#SVGID_22_);fill:#14AEE5;}
	.st312{clip-path:url(#SVGID_22_);fill:#14AFE5;}
	.st313{clip-path:url(#SVGID_22_);fill:#14B0E6;}
	.st314{clip-path:url(#SVGID_22_);fill:#14B1E7;}
	.st315{clip-path:url(#SVGID_22_);fill:#14B2E8;}
	.st316{clip-path:url(#SVGID_22_);fill:#14B3E8;}
	.st317{clip-path:url(#SVGID_22_);fill:#14B4E9;}
	.st318{clip-path:url(#SVGID_22_);fill:#14B5EA;}
	.st319{clip-path:url(#SVGID_22_);fill:#13B6EA;}
	.st320{clip-path:url(#SVGID_22_);fill:#13B7EB;}
	.st321{clip-path:url(#SVGID_22_);fill:#13B8EC;}
	.st322{clip-path:url(#SVGID_22_);fill:#13B9ED;}
	.st323{clip-path:url(#SVGID_22_);fill:#13BAED;}
	.st324{clip-path:url(#SVGID_22_);fill:#13BBEE;}
	.st325{clip-path:url(#SVGID_22_);fill:#13BCEF;}
	.st326{clip-path:url(#SVGID_22_);fill:#13BDF0;}
	.st327{clip-path:url(#SVGID_22_);fill:#13BEF0;}
	.st328{clip-path:url(#SVGID_22_);fill:#13BFF1;}
	.st329{display:none;fill:#606060;}
</style>
<g id="Guides_For_Artboard_1_">
</g>
<g id="Guides_For_Artboard">
</g>
<g id="Guías_para_la_mesa_de_trabajo">
</g>
<g id="Layer_1">
</g>
<g id="Background">
</g>
<g id="Guides">
</g>
<g id="Foreground">
</g>
<g id="Layer_1_1_">
	<path class="st131" d="M0,0v604h424V0H0z M420,600H4V4h416V600z M190.7,213.8l18.2-8.7l0,0c0.5-0.2,1-0.1,1.3,0.4
		c0.3,0.4,0.2,1-0.2,1.4l0,0l-15.6,12.9l18.2,8.8l0,0c0.5,0.2,0.7,0.8,0.5,1.3s-0.7,0.8-1.2,0.7l0,0l-19.7-4.1l4.4,19.7l0,0
		c0.1,0.5-0.2,1-0.7,1.2c-0.5,0.2-1,0-1.3-0.5l0,0l-9.1-18L173,244.4l0,0c-0.3,0.4-0.9,0.5-1.4,0.2c-0.5-0.3-0.6-0.9-0.4-1.3l0,0
		l8.4-18.3l-20.2-0.1l0,0c-0.5,0-1-0.4-1-0.9c-0.1-0.5,0.3-1,0.8-1.1v0l19.6-4.8l-12.5-15.8l0,0c-0.3-0.4-0.3-1,0.1-1.4
		c0.4-0.4,1-0.4,1.4-0.1l0,0l16,12.3l4.5-19.7l0,0c0.1-0.5,0.6-0.9,1.1-0.8c0.5,0.1,0.9,0.5,0.9,1h0L190.7,213.8z M311,121.5
		c-0.2-0.3-0.2-0.6,0-0.9c0.2-0.2,0.6-0.3,0.9-0.1l0,0l10.3,7.9l2.9-12.7h0c0.1-0.3,0.4-0.6,0.7-0.5c0.3,0,0.6,0.3,0.6,0.7h0l0.2,13
		l11.8-5.6l0,0c0.3-0.1,0.7,0,0.9,0.2c0.2,0.3,0.1,0.7-0.1,0.9l0,0l-10.1,8.3l11.7,5.7l0,0c0.3,0.1,0.5,0.5,0.3,0.8
		c-0.1,0.3-0.4,0.5-0.8,0.4v0l-12.8-2.7l2.9,12.7h0c0.1,0.3-0.1,0.7-0.4,0.8c-0.3,0.1-0.7,0-0.8-0.3l0,0l-5.9-11.6l-8.2,10.2l0,0
		c-0.2,0.3-0.6,0.3-0.9,0.2c-0.3-0.2-0.4-0.5-0.3-0.9h0l5.5-11.8l-13,0v0c-0.3,0-0.6-0.3-0.7-0.6c0-0.3,0.2-0.7,0.5-0.7v0l12.7-3.1
		L311,121.5L311,121.5z M157.2,86.3c0-0.3,0.2-0.7,0.5-0.7v0l12.6-3.1l-8.1-10.2l0,0c-0.2-0.3-0.2-0.6,0-0.9
		c0.2-0.2,0.6-0.3,0.9-0.1h0l10.3,7.9l2.9-12.7h0c0.1-0.3,0.4-0.6,0.7-0.5s0.6,0.3,0.6,0.7l0,0l0.2,13l11.8-5.6l0,0
		c0.3-0.1,0.7,0,0.9,0.2c0.2,0.3,0.1,0.7-0.1,0.9l0,0l-10,8.3l11.7,5.7v0c0.3,0.1,0.5,0.5,0.3,0.8c-0.1,0.3-0.4,0.5-0.8,0.4l0,0
		L179,87.7l2.9,12.7h0c0.1,0.3-0.1,0.7-0.4,0.8c-0.3,0.1-0.7,0-0.8-0.3l0,0l-5.9-11.6l-8.1,10.2l0,0c-0.2,0.3-0.6,0.3-0.9,0.2
		c-0.3-0.2-0.4-0.5-0.3-0.9l0,0l5.4-11.8l-13,0v0C157.6,86.8,157.3,86.6,157.2,86.3z M276.9,43.9c0-0.3,0.2-0.6,0.5-0.7v0l11.4-2.8
		l-7.3-9.2l0,0c-0.2-0.2-0.2-0.6,0-0.8s0.6-0.2,0.8-0.1l0,0l9.3,7.2l2.6-11.5h0c0.1-0.3,0.3-0.5,0.7-0.5c0.3,0,0.5,0.3,0.5,0.6h0
		l0.2,11.8l10.6-5.1l0,0c0.3-0.1,0.6,0,0.8,0.2c0.2,0.3,0.1,0.6-0.1,0.8l0,0l-9.1,7.5l10.6,5.1l0,0c0.3,0.1,0.4,0.4,0.3,0.7
		c-0.1,0.3-0.4,0.5-0.7,0.4v0l-11.5-2.4l2.6,11.5l0,0c0.1,0.3-0.1,0.6-0.4,0.7c-0.3,0.1-0.6,0-0.7-0.3h0l-5.3-10.5l-7.4,9.2l0,0
		c-0.2,0.2-0.5,0.3-0.8,0.1c-0.3-0.2-0.4-0.5-0.2-0.8l0,0l4.9-10.7l-11.8,0l0,0C277.2,44.4,276.9,44.2,276.9,43.9z M116.3,372.3
		c0-3,0.5-5.9,1.6-8.7l7.4-17.9c0,0,0,0.1,0,0.1l0-0.1c-8.6,21.5,21.3,53.8,65.1,71.4c43.8,17.6,87.8,15,96.4-6.5l-7.1,18
		c-8.8,21.9-52.2,25.2-96.9,7.2C143.7,420.2,116.6,393.5,116.3,372.3z M37.7,420.4c0-2.7,0.4-5.3,1.4-7.8l6.6-16.1c0,0,0,0,0,0l0,0
		c-7.8,19.4,19.2,48.4,58.6,64.3c39.4,15.8,79,13.5,86.8-5.8l0,0c0,0,0,0,0,0l-6.4,16.2c-1.8,4.5-5.2,8.1-9.8,10.8
		c-7.6,4.5-18.5,6.5-31.3,6.1c-13.9-0.5-29.9-3.9-46.1-10.4c-7.5-3-14.6-6.5-21-10.3C53,453.4,37.9,435.4,37.7,420.4z M334.4,263.6
		l2.1-5.1c1.1-2.6-1.8-6.3-6.3-8.1c-4.6-1.8-9.1-1.2-10.2,1.5l-2.1,5.1c0,0,0,0.1,0,0.1l-109.7,60.1c-1.8-4.3-2.9-8.5-3-12.6
		c-0.1-3.3,0.4-6.5,1.6-9.5l0,0c0,0,0,0,0,0l-8.2,19.9c-1.5,3.8-2,7.9-1.6,12.2c0,0,0,0,0,0c0.1,0.8,0.2,1.7,0.4,2.6
		c3,16,18.4,34.2,41.6,49.2c9.4,6.1,20.1,11.7,31.7,16.3c27.9,11.2,55.4,15,75.8,11.8c15.9-2.5,27.5-9.2,31.8-19.8l7.9-20
		c-2.5,6.3-7.8,11.1-15,14.4l-37.1-117.8C334.3,263.8,334.4,263.7,334.4,263.6z M363.7,367l5,15.9c-12.4,4.9-29.9,5.9-49.3,2.9
		c-12.8-2-26.5-5.7-40.2-11.2c-28.5-11.5-51.8-28.6-64.2-45.6c-0.1-0.2-0.3-0.4-0.5-0.6c0-0.1-0.1-0.1-0.1-0.2c-2-2.8-3.7-5.6-5-8.3
		l60.6-33.2l48.2-26.4c1,1.9,3.1,3.8,6,4.9c2.8,1.1,5.6,1.3,7.6,0.7L363.7,367z M85.4,509.1l-29.5,71.3h17.9l6.8-16.6h27.2l6.8,16.6
		h17.8l-29.5-71.3H85.4z M84,551.1l10.2-24.9l10.2,24.9H84z M173.8,567.7h14.5v12.7h-16.1c-2.5,0-4.6,0-6.2-0.1
		c-1.6,0-3-0.1-4.2-0.2c-1.2-0.1-2.2-0.2-3-0.4c-0.8-0.2-1.7-0.4-2.6-0.6c-3.6-1-6.7-2.7-9.4-5c-2.6-2.3-4.5-5.2-5.6-8.7
		c-0.6-1.6-1-3.9-1.3-6.7c-0.3-2.8-0.4-6.1-0.4-9.8v-40h15.2v40c0.1,3.1,0.3,5.6,0.4,7.3c0.1,1.8,0.3,3.1,0.5,4.2
		c0.3,1,0.6,1.8,1,2.3c0.4,0.5,0.9,1.1,1.7,1.7c0.7,0.6,1.5,1.2,2.3,1.5c0.8,0.4,1.8,0.7,2.9,0.9c1.2,0.2,2.6,0.4,4.3,0.5
		C169.3,567.6,171.4,567.7,173.8,567.7z M258.5,509.1h22.1v71.3h-14.3v-53.6l-18.8,53.6h-15.7l-17.7-53.6v53.6h-14.3v-71.3H222
		l17.8,55.7L258.5,509.1z M321.2,509.1l-29.5,71.3h17.9l6.8-16.6h27.2l6.8,16.6h17.8l-29.5-71.3H321.2z M319.8,551.1l10.2-24.9
		l10.2,24.9H319.8z"/>
</g>
</svg>
