<?xml version="1.0" encoding="UTF-8"?>
<svg id="Capa_1" xmlns="http://www.w3.org/2000/svg" version="1.1" viewBox="0 0 172 113.63">
  <!-- Generator: Adobe Illustrator 29.8.3, SVG Export Plug-In . SVG Version: 2.1.1 Build 3)  -->
  <defs>
    <style>
      .st0 {
        fill: #fff;
      }
    </style>
  </defs>
  <g>
    <path class="st0" d="M31.29,68.64c.36.35.53.79.53,1.31v24.03c0,.52-.18.96-.55,1.31-.37.35-.8.53-1.3.53s-.96-.18-1.31-.53c-.36-.35-.53-.79-.53-1.31v-17.64l-8.59,17.5c-.4.62-.94.92-1.6.92-.78,0-1.35-.37-1.7-1.1l-8.48-17v17.32c0,.52-.18.96-.53,1.31s-.79.53-1.31.53-.96-.18-1.31-.53c-.35-.35-.53-.79-.53-1.31v-24.03c0-.52.18-.96.53-1.31.36-.35.79-.53,1.31-.53.71,0,1.25.33,1.63.99l10.54,21.12,10.26-21.12c.38-.66.92-.99,1.63-.99.52,0,.96.18,1.31.53Z"/>
    <path class="st0" d="M42.05,95.3c-.36-.35-.53-.79-.53-1.31v-24.03c0-.54.18-.99.53-1.33.35-.34.79-.51,1.31-.51s.99.17,1.33.51c.34.34.51.79.51,1.33v24.03c0,.52-.17.96-.51,1.31-.34.35-.79.53-1.33.53s-.96-.18-1.31-.53Z"/>
    <path class="st0" d="M55.41,95.32c-.34-.34-.51-.79-.51-1.33v-24.03c0-.54.17-.99.51-1.33.34-.34.77-.51,1.3-.51.26,0,.52.07.78.2.26.13.47.29.64.48l15.48,20.59v-19.42c0-.54.18-.99.53-1.33.36-.34.79-.51,1.31-.51s.95.17,1.3.51c.34.34.51.79.51,1.33v24.03c0,.54-.17.99-.51,1.33-.34.34-.78.51-1.3.51-.26,0-.53-.05-.8-.16-.27-.11-.48-.27-.62-.48l-15.48-20.59v19.38c0,.52-.17.96-.51,1.31-.34.35-.79.53-1.33.53s-.95-.17-1.3-.51Z"/>
    <path class="st0" d="M108.12,81.97c.34.34.51.79.51,1.33v8.48c0,.57-.19,1.01-.57,1.31-2.48,2.06-5.38,3.09-8.7,3.09-2.53,0-4.85-.63-6.94-1.88-2.09-1.25-3.74-2.97-4.95-5.15-1.21-2.18-1.81-4.58-1.81-7.21s.6-4.99,1.81-7.15c1.21-2.17,2.86-3.88,4.95-5.15,2.09-1.27,4.41-1.9,6.94-1.9,1.8,0,3.35.24,4.67.71,1.31.47,2.64,1.25,3.99,2.34.28.21.47.43.57.66.09.23.14.49.14.8,0,.47-.17.86-.51,1.17-.34.31-.75.46-1.22.46-.43,0-.83-.15-1.21-.46-.97-.83-1.92-1.43-2.84-1.79-.92-.37-2.12-.55-3.59-.55-1.85,0-3.54.49-5.09,1.46-1.55.97-2.78,2.29-3.69,3.96-.91,1.67-1.37,3.48-1.37,5.45s.46,3.81,1.37,5.47c.91,1.66,2.14,2.97,3.69,3.94,1.55.97,3.25,1.46,5.09,1.46,1.99,0,3.89-.59,5.72-1.77v-6.32h-4.9c-.54,0-.99-.15-1.33-.46-.34-.31-.51-.7-.51-1.17s.17-.86.51-1.17c.34-.31.79-.46,1.33-.46h6.64c.52,0,.95.17,1.3.51Z"/>
    <path class="st0" d="M138.03,94.02c0,.5-.18.92-.53,1.28-.36.35-.79.53-1.31.53-.36,0-.69-.1-1.01-.3-.32-.2-.55-.48-.69-.83l-1.99-4.97h-12.74l-2.02,4.97c-.17.35-.4.63-.71.83-.31.2-.64.3-.99.3-.52,0-.95-.18-1.3-.55-.34-.37-.51-.8-.51-1.3,0-.24.06-.51.18-.82l9.97-23.82c.35-.83.93-1.24,1.74-1.24.85,0,1.43.41,1.74,1.24l10.01,23.89c.12.31.18.57.18.78ZM120.99,86.67h10.26l-5.08-12.64-5.18,12.64Z"/>
    <path class="st0" d="M145.18,95.3c-.34-.35-.51-.79-.51-1.31v-24.03c0-.52.18-.96.53-1.31.36-.35.78-.53,1.28-.53s.96.18,1.31.53c.36.35.53.79.53,1.31v22.19h12.85c.52,0,.96.18,1.31.53.36.35.53.79.53,1.31s-.18.96-.53,1.31c-.35.35-.79.53-1.31.53h-14.7c-.52,0-.95-.18-1.3-.53Z"/>
  </g>
  <g>
    <path class="st0" d="M4.17,109.85c-.07-.07-.11-.16-.11-.27v-6.73c0-.11.04-.2.11-.27.07-.07.16-.11.27-.11.12,0,.21.04.29.13l4.58,6.02v-5.78c0-.11.04-.2.11-.27.07-.07.16-.11.26-.11.11,0,.2.04.27.11.07.07.11.16.11.27v6.73c0,.1-.04.19-.11.26-.07.07-.16.11-.27.11-.13,0-.22-.04-.28-.12l-4.59-6.02v5.77c0,.1-.04.19-.11.26-.07.07-.16.11-.27.11s-.2-.03-.27-.11Z"/>
    <path class="st0" d="M17.56,104.81c.07.07.11.15.11.26v4.5c0,.11-.04.2-.11.27s-.16.11-.27.11-.2-.03-.26-.11c-.07-.07-.1-.16-.1-.27v-.33c-.21.24-.47.42-.77.56-.3.13-.63.2-.98.2-.45,0-.86-.1-1.22-.29-.36-.19-.64-.47-.85-.84-.2-.37-.31-.81-.31-1.32v-2.49c0-.1.04-.19.11-.26.07-.07.16-.11.26-.11.11,0,.2.04.27.11.07.07.11.16.11.26v2.49c0,.57.16,1,.47,1.3.32.3.73.45,1.24.45.31,0,.6-.06.85-.18.25-.12.45-.29.6-.5.15-.21.22-.45.22-.71v-2.84c0-.11.03-.2.1-.26.07-.07.15-.1.26-.1s.2.03.27.1ZM14.96,103.81c-.07-.07-.11-.16-.11-.26s.03-.19.09-.25l1.08-1.08c.07-.07.16-.11.26-.11.11,0,.2.04.27.11.07.07.11.16.11.27,0,.1-.04.19-.11.25l-1.07,1.08c-.06.06-.15.1-.25.1-.11,0-.2-.04-.27-.11Z"/>
    <path class="st0" d="M21.42,109.65c-.4-.23-.71-.55-.93-.96-.23-.41-.34-.86-.34-1.36s.11-.97.33-1.37c.22-.41.52-.72.9-.95s.81-.34,1.29-.34c.8,0,1.45.31,1.94.92.05.06.08.12.08.2,0,.1-.05.19-.16.27-.06.04-.12.06-.18.06-.1,0-.19-.05-.28-.14-.19-.21-.4-.37-.63-.47-.23-.11-.49-.16-.77-.16-.35,0-.66.08-.94.25-.27.17-.49.41-.64.71-.15.31-.22.65-.22,1.03s.08.72.24,1.02c.16.3.38.54.67.71.29.17.62.26.99.26.51,0,.92-.14,1.24-.41.08-.07.17-.11.26-.11.08,0,.15.03.21.08.09.08.13.16.13.26,0,.08-.03.15-.1.21-.46.43-1.04.64-1.74.64-.5,0-.95-.12-1.34-.35Z"/>
    <path class="st0" d="M27.35,109.49c-.25-.31-.37-.71-.37-1.19v-5.46c0-.11.04-.2.11-.26.07-.07.16-.1.26-.1.11,0,.2.03.26.1.07.07.1.15.1.26v5.46c0,.27.06.5.17.67s.25.26.43.26h.24c.1,0,.17.03.23.1.06.07.09.15.09.26s-.04.2-.12.26c-.08.07-.18.1-.31.1h-.12c-.39,0-.71-.15-.95-.46Z"/>
    <path class="st0" d="M34.22,105c.36.22.65.53.85.91.2.39.3.83.3,1.33,0,.1-.03.18-.1.24-.06.06-.15.09-.25.09h-3.87c.05.52.26.95.61,1.27.36.33.8.49,1.34.49.23,0,.46-.04.69-.12.23-.08.42-.18.56-.3.08-.06.17-.1.26-.1.07,0,.14.03.21.08.08.08.12.16.12.26,0,.08-.04.16-.11.22-.21.18-.48.33-.8.45-.33.12-.64.18-.94.18-.51,0-.97-.11-1.37-.34-.4-.23-.72-.54-.94-.95-.23-.41-.34-.86-.34-1.37s.11-.98.32-1.38c.21-.41.51-.72.89-.95.38-.23.81-.34,1.3-.34s.89.11,1.25.33ZM31.76,105.78c-.32.3-.51.7-.58,1.19h3.51c-.05-.49-.23-.89-.54-1.19-.31-.3-.7-.45-1.18-.45s-.89.15-1.21.45Z"/>
    <path class="st0" d="M38.48,109.66c-.41-.23-.72-.55-.95-.95-.23-.41-.34-.86-.34-1.36s.11-.96.34-1.37c.23-.41.55-.73.95-.96.41-.23.86-.34,1.36-.34s.96.11,1.36.34.72.55.95.96c.23.41.35.87.35,1.37s-.11.96-.34,1.36c-.23.41-.55.72-.95.95s-.86.34-1.36.34-.96-.11-1.36-.34ZM40.84,109.07c.29-.17.52-.41.69-.71.17-.3.25-.64.25-1.02s-.08-.73-.25-1.03c-.17-.3-.4-.54-.69-.71-.29-.17-.63-.26-1-.26s-.69.09-.99.26c-.3.17-.53.41-.7.71-.17.3-.25.65-.25,1.03s.08.72.25,1.02c.17.3.4.54.7.71.3.17.63.26.99.26s.7-.09,1-.26Z"/>
    <path class="st0" d="M56.29,102.58c.07.07.11.16.11.27v6.73c0,.1-.04.19-.11.26-.07.07-.16.11-.26.11-.11,0-.2-.04-.27-.11s-.11-.16-.11-.26v-5.42l-2.66,5.44c-.08.12-.19.18-.33.18-.16,0-.27-.08-.34-.23l-2.65-5.31v5.34c0,.1-.04.19-.11.26-.07.07-.16.11-.27.11-.1,0-.19-.04-.26-.11-.07-.07-.11-.16-.11-.26v-6.73c0-.11.04-.2.11-.27.07-.07.16-.11.26-.11.15,0,.26.06.34.19l3.07,6.09,3.01-6.09c.08-.13.19-.19.34-.19.1,0,.19.04.26.11Z"/>
    <path class="st0" d="M59.4,103.56c-.1-.1-.15-.23-.15-.37s.05-.28.15-.37c.1-.1.23-.14.37-.14s.26.05.36.14c.1.1.15.22.15.37s-.05.27-.15.37c-.1.1-.23.15-.37.15s-.27-.05-.37-.15ZM59.51,109.85c-.07-.07-.11-.16-.11-.27v-4.49c0-.11.03-.2.11-.27.07-.07.16-.11.27-.11s.2.04.26.11c.07.07.1.16.1.27v4.49c0,.11-.03.2-.1.27-.07.07-.16.11-.26.11s-.2-.03-.27-.11Z"/>
    <path class="st0" d="M63.23,109.49c-.25-.31-.37-.71-.37-1.19v-5.46c0-.11.03-.2.11-.26.07-.07.16-.1.26-.1.11,0,.2.03.26.1.07.07.1.15.1.26v5.46c0,.27.06.5.17.67s.25.26.43.26h.24c.1,0,.17.03.23.1.06.07.09.15.09.26s-.04.2-.12.26c-.08.07-.18.1-.31.1h-.12c-.39,0-.71-.15-.95-.46Z"/>
    <path class="st0" d="M70.1,105c.36.22.65.53.85.91.2.39.3.83.3,1.33,0,.1-.03.18-.1.24-.06.06-.15.09-.25.09h-3.87c.05.52.26.95.61,1.27s.8.49,1.34.49c.23,0,.46-.04.69-.12.23-.08.42-.18.56-.3.08-.06.17-.1.26-.1.07,0,.14.03.21.08.08.08.12.16.12.26,0,.08-.04.16-.11.22-.21.18-.48.33-.8.45-.33.12-.64.18-.94.18-.51,0-.97-.11-1.37-.34-.4-.23-.72-.54-.94-.95-.23-.41-.34-.86-.34-1.37s.11-.98.32-1.38c.21-.41.51-.72.89-.95.38-.23.81-.34,1.3-.34s.89.11,1.25.33ZM67.64,105.78c-.32.3-.51.7-.58,1.19h3.51c-.05-.49-.23-.89-.54-1.19-.31-.3-.7-.45-1.18-.45s-.89.15-1.21.45Z"/>
    <path class="st0" d="M77.23,104.94c.36.19.64.47.85.84.2.37.31.81.31,1.32v2.49c0,.1-.04.19-.11.26-.07.07-.16.11-.26.11-.11,0-.2-.03-.27-.11-.07-.07-.11-.16-.11-.26v-2.49c0-.57-.16-1-.47-1.3-.32-.3-.73-.45-1.24-.45-.31,0-.6.06-.85.18-.25.12-.45.29-.6.5-.15.21-.22.45-.22.71v2.84c0,.11-.03.2-.1.26-.07.07-.15.1-.26.1s-.2-.03-.27-.1c-.07-.07-.11-.15-.11-.26v-4.5c0-.11.03-.2.11-.27.07-.07.16-.11.27-.11s.2.04.26.11c.07.07.1.16.1.27v.33c.21-.24.47-.42.77-.56.3-.13.63-.2.98-.2.45,0,.86.1,1.22.29Z"/>
    <path class="st0" d="M81.2,103.56c-.1-.1-.15-.23-.15-.37s.05-.28.15-.37c.1-.1.23-.14.37-.14s.26.05.36.14c.1.1.15.22.15.37s-.05.27-.15.37c-.1.1-.23.15-.37.15s-.27-.05-.37-.15ZM81.31,109.85c-.07-.07-.11-.16-.11-.27v-4.49c0-.11.04-.2.11-.27.07-.07.16-.11.27-.11s.2.04.26.11c.07.07.1.16.1.27v4.49c0,.11-.03.2-.1.27-.07.07-.15.11-.26.11s-.2-.03-.27-.11Z"/>
    <path class="st0" d="M85.87,109.66c-.41-.23-.72-.55-.95-.95-.23-.41-.34-.86-.34-1.36s.11-.96.34-1.37c.23-.41.55-.73.95-.96.41-.23.86-.34,1.36-.34s.96.11,1.36.34.72.55.95.96c.23.41.35.87.35,1.37s-.11.96-.34,1.36c-.23.41-.55.72-.95.95s-.86.34-1.36.34-.96-.11-1.36-.34ZM88.23,109.07c.29-.17.52-.41.69-.71.17-.3.25-.64.25-1.02s-.08-.73-.25-1.03c-.17-.3-.4-.54-.69-.71-.29-.17-.63-.26-1-.26s-.69.09-.99.26c-.3.17-.53.41-.7.71-.17.3-.25.65-.25,1.03s.08.72.25,1.02c.17.3.4.54.7.71.3.17.63.26.99.26s.7-.09,1-.26Z"/>
    <path class="st0" d="M101.26,105.08v2.25c0,.5-.12.95-.35,1.36-.23.41-.55.73-.96.96-.41.23-.86.35-1.36.35s-.95-.12-1.36-.35c-.41-.23-.72-.55-.96-.96-.23-.41-.35-.86-.35-1.36s.11-.95.34-1.36c.23-.41.54-.72.93-.96.39-.23.83-.35,1.32-.35.42,0,.79.09,1.14.26.34.18.63.42.85.72v-2.81c0-.11.04-.2.11-.27.07-.07.16-.11.27-.11s.2.04.26.11c.07.07.1.16.1.27v2.15s0,.05,0,.09ZM99.58,109.07c.29-.18.53-.42.69-.72.17-.3.25-.64.25-1.02,0-.11,0-.19,0-.24,0-.01,0-.03,0-.05-.06-.5-.27-.91-.63-1.23-.35-.32-.78-.48-1.29-.48-.36,0-.69.09-.99.26-.3.17-.53.41-.7.71-.17.3-.25.64-.25,1.02s.08.72.25,1.02.4.54.7.72c.3.18.63.26.99.26s.69-.09.99-.26Z"/>
    <path class="st0" d="M107.5,105c.36.22.65.53.85.91.2.39.3.83.3,1.33,0,.1-.03.18-.1.24-.06.06-.15.09-.25.09h-3.87c.05.52.26.95.61,1.27.36.33.8.49,1.34.49.23,0,.46-.04.69-.12.23-.08.42-.18.56-.3.08-.06.17-.1.26-.1.07,0,.14.03.21.08.08.08.12.16.12.26,0,.08-.04.16-.11.22-.21.18-.48.33-.8.45-.33.12-.64.18-.94.18-.51,0-.97-.11-1.37-.34-.4-.23-.72-.54-.94-.95-.23-.41-.34-.86-.34-1.37s.11-.98.32-1.38c.21-.41.51-.72.89-.95.38-.23.81-.34,1.3-.34s.89.11,1.25.33ZM105.04,105.78c-.32.3-.51.7-.58,1.19h3.51c-.05-.49-.23-.89-.54-1.19-.31-.3-.7-.45-1.18-.45s-.89.15-1.21.45Z"/>
    <path class="st0" d="M120.58,106.32c.07.07.11.15.11.26v2.38c0,.11-.04.2-.11.27-.59.55-1.38.82-2.35.82-.68,0-1.3-.17-1.87-.52-.57-.34-1.02-.81-1.36-1.4-.34-.59-.5-1.23-.5-1.93s.17-1.33.5-1.92c.33-.59.78-1.05,1.35-1.4s1.19-.52,1.88-.52c.46,0,.88.07,1.25.2.38.13.74.35,1.09.64.07.05.11.12.11.22,0,.05-.01.1-.04.14-.03.04-.06.07-.11.09-.01.04-.04.08-.09.11-.04.03-.09.04-.14.04-.09,0-.17-.03-.24-.1-.25-.22-.52-.39-.81-.49-.29-.1-.64-.15-1.03-.15-.54,0-1.03.14-1.49.43-.46.28-.83.67-1.1,1.14-.27.48-.41,1-.41,1.55s.13,1.09.4,1.57c.27.48.63.86,1.09,1.14.46.28.96.42,1.5.42.62,0,1.19-.18,1.72-.55v-1.92h-1.49c-.11,0-.2-.03-.27-.1-.07-.06-.11-.14-.11-.24s.04-.17.11-.23c.07-.06.16-.09.27-.09h1.85c.11,0,.2.03.27.1Z"/>
    <path class="st0" d="M126.67,105.02c.41.23.72.55.96.96.23.41.35.86.35,1.36v2.25c0,.1-.04.19-.11.26-.07.07-.16.11-.27.11s-.2-.03-.27-.1c-.07-.07-.11-.15-.11-.26v-.57c-.22.31-.51.55-.85.72-.34.18-.72.26-1.14.26-.49,0-.92-.12-1.32-.35-.39-.23-.7-.55-.93-.96-.23-.41-.34-.86-.34-1.36s.12-.95.35-1.36c.23-.41.55-.73.96-.96.41-.23.86-.35,1.36-.35s.95.12,1.36.35ZM126.3,109.07c.29-.17.52-.41.69-.71.17-.3.25-.64.25-1.02s-.08-.72-.25-1.02c-.17-.3-.4-.54-.69-.72-.29-.18-.62-.26-.99-.26s-.69.09-.99.26c-.3.18-.53.42-.7.72-.17.3-.25.64-.25,1.02s.08.72.25,1.02c.17.3.4.54.7.71.3.17.63.26.99.26s.69-.09.99-.26Z"/>
    <path class="st0" d="M130.62,109.49c-.25-.31-.37-.71-.37-1.19v-5.46c0-.11.04-.2.11-.26.07-.07.16-.1.26-.1.11,0,.2.03.26.1.07.07.1.15.1.26v5.46c0,.27.06.5.17.67s.25.26.43.26h.24c.1,0,.17.03.23.1.06.07.09.15.09.26s-.04.2-.12.26c-.08.07-.18.1-.31.1h-.12c-.39,0-.71-.15-.95-.46Z"/>
    <path class="st0" d="M137.75,105.02c.41.23.72.55.96.96.23.41.35.86.35,1.36v2.25c0,.1-.04.19-.11.26-.07.07-.16.11-.27.11s-.2-.03-.27-.1c-.07-.07-.11-.15-.11-.26v-.57c-.22.31-.51.55-.85.72-.34.18-.72.26-1.14.26-.49,0-.92-.12-1.32-.35-.39-.23-.7-.55-.93-.96-.23-.41-.34-.86-.34-1.36s.12-.95.35-1.36c.23-.41.55-.73.96-.96.41-.23.86-.35,1.36-.35s.95.12,1.36.35ZM137.38,109.07c.29-.17.53-.41.69-.71.17-.3.25-.64.25-1.02s-.08-.72-.25-1.02c-.17-.3-.4-.54-.69-.72-.29-.18-.62-.26-.99-.26s-.69.09-.99.26c-.3.18-.53.42-.7.72-.17.3-.25.64-.25,1.02s.08.72.25,1.02c.17.3.4.54.7.71.3.17.63.26.99.26s.69-.09.99-.26Z"/>
    <path class="st0" d="M145.51,109.64c0,.09-.03.16-.1.23-.07.06-.14.09-.22.09-.08,0-.14-.01-.19-.04-.05-.03-.1-.07-.14-.13l-1.57-2-1.63,2.06c-.06.08-.14.11-.26.11-.1,0-.18-.03-.24-.1-.06-.06-.09-.14-.09-.23,0-.1.03-.19.1-.26l1.66-2.07-1.57-1.99c-.06-.07-.1-.16-.1-.26,0-.1.03-.18.09-.24.06-.06.14-.1.25-.1s.2.04.28.11l1.54,1.98,1.52-1.93c.09-.11.19-.17.32-.17.1,0,.18.03.24.1.06.06.09.14.09.23,0,.1-.04.19-.11.28l-1.59,1.97,1.63,2.09c.07.09.11.18.11.26Z"/>
    <path class="st0" d="M147.96,103.56c-.1-.1-.15-.23-.15-.37s.05-.28.15-.37c.1-.1.23-.14.37-.14s.26.05.36.14c.1.1.15.22.15.37s-.05.27-.15.37c-.1.1-.23.15-.37.15s-.27-.05-.37-.15ZM148.07,109.85c-.07-.07-.11-.16-.11-.27v-4.49c0-.11.04-.2.11-.27.07-.07.16-.11.27-.11s.2.04.26.11c.07.07.1.16.1.27v4.49c0,.11-.03.2-.1.27-.07.07-.15.11-.26.11s-.2-.03-.27-.11Z"/>
    <path class="st0" d="M155.35,105.02c.41.23.72.55.96.96.23.41.35.86.35,1.36v2.25c0,.1-.04.19-.11.26-.07.07-.16.11-.27.11s-.2-.03-.27-.1c-.07-.07-.11-.15-.11-.26v-.57c-.22.31-.51.55-.85.72-.34.18-.72.26-1.14.26-.49,0-.92-.12-1.32-.35-.39-.23-.7-.55-.93-.96-.23-.41-.34-.86-.34-1.36s.12-.95.35-1.36c.23-.41.55-.73.96-.96.41-.23.86-.35,1.36-.35s.95.12,1.36.35ZM154.98,109.07c.29-.17.53-.41.69-.71.17-.3.25-.64.25-1.02s-.08-.72-.25-1.02c-.17-.3-.4-.54-.69-.72-.29-.18-.62-.26-.99-.26s-.69.09-.99.26c-.3.18-.53.42-.7.72-.17.3-.25.64-.25,1.02s.08.72.25,1.02c.17.3.4.54.7.71.3.17.63.26.99.26s.69-.09.99-.26Z"/>
    <path class="st0" d="M159.82,109.8c-.36-.13-.66-.32-.88-.57-.06-.08-.1-.15-.1-.22,0-.11.05-.2.15-.29.08-.06.16-.09.24-.09.11,0,.2.04.28.13.15.18.36.32.61.41.25.1.53.14.84.14.45,0,.78-.08,1.01-.23.22-.15.34-.35.34-.6,0-.23-.11-.42-.34-.57-.22-.15-.58-.27-1.06-.34-.63-.1-1.09-.28-1.4-.53-.31-.25-.46-.56-.46-.91,0-.47.18-.83.54-1.08.36-.26.81-.38,1.36-.38.42,0,.79.07,1.1.22.31.14.57.34.76.6.05.08.08.16.08.22,0,.11-.05.19-.15.26-.04.03-.11.05-.18.05-.13,0-.25-.05-.34-.14-.31-.36-.74-.54-1.28-.54-.35,0-.63.07-.84.22s-.32.32-.32.54c0,.23.1.41.3.55.2.14.55.25,1.05.33.68.11,1.17.3,1.47.56.29.26.44.58.44.96,0,.29-.09.56-.26.79-.18.23-.42.41-.73.54-.31.13-.67.19-1.06.19s-.78-.07-1.14-.2Z"/>
  </g>
  <path class="st0" d="M149.01,16.64c-.35-2.53.1-4.82,2.16-6.52,1.77-1.45,3.75-1.88,6.02-1.21,1.64.48,2.53,1.6,3.1,3.13.7,1.86.39,3.53-1.21,5.08-1.39,1.03-3.05,1.27-4.17.3-.4-.3-.73-.74-1.09-1.14-.06-.06-.17-.02-.17.07.03,1.4,1.43,2.86,2.93,2.86,2.99,0,5.4-2.1,5.2-5.41-.07-1.2-.36-2.35-.89-3.43,0,0,0,0,0,0-.11-.24.19-.49.41-.33.02.01.03.02.04.04.22.25.41.54.57.83,1.22,2.24,1.61,4.54.28,6.86-1.14,1.98-2.85,3.08-5.2,3.26-1.71.13-2.93-.61-4-1.83-1.31-1.49-1.62-3.17-.67-5.18.65-1,1.55-1.57,2.51-1.66,1.43-.28,2.97.4,3.65,2.11.03.08.15.08.18,0,.47-1.32-.33-3.18-1.73-3.71-2.79-1.06-5.8.06-6.78,3.22-.36,1.15-.5,2.32-.38,3.53,0,0,0,0,0,.01.01.26-.35.39-.5.17-.01-.02-.02-.03-.03-.05-.12-.31-.19-.64-.24-.98ZM165.34,37.83c.19.31-.19.73-.45.86-1.11.59-2.22,1.2-3.35,1.76-.87.43-1.54.98-1.8,1.97-.23.88-.73,1.62-1.44,2.2-.82.68-1.75.83-2.76.53-.53-.16-1.04-.35-1.57-.49-.99-.27-1.93-.06-2.85.34-.76.34-1.53.66-2.31.94-.22.08-.61.09-.72-.04-.24-.29,0-.58.25-.76.45-.32.91-.61,1.38-.91.64-.41,1.36-.74,1.92-1.24,1.1-.94,1.53-2.13,1.63-2.37.51-1.18,1.38-1.77,2.57-2.01.52-.11,1.11-.16,1.76.03.41.12,2.25.79,3.9.13.87-.35,1.75-.68,2.63-1.01.13-.05.41-.14.6-.15.33-.01.48.03.6.23ZM158.01,41.74c0-.81-.67-1.55-1.39-1.55-1.17,0-2.15.88-2.16,1.91,0,.87.71,1.47,1.73,1.47.97,0,1.82-.86,1.81-1.84ZM135.79,30.82c-.28-.24-.59-.44-.9-.64-.24-.16-.55.08-.46.35.03.1.08.18.12.24,1.09,1.21,2.23,2.36,3.27,3.6.44.53.74,1.2.97,1.86.35,1-.19,2.03-1.21,2.3-1.55.41-2.76-.41-3.89-1.06-.16-.09-.24-.27-.19-.45.13-.54.3-1,.22-1.41-.11-.57-.43-1.17-.83-1.59-.84-.87-1.76-1.69-2.72-2.43-1.41-1.09-2.9-1.96-4.81-1.83-1.86.13-3.29,1.55-3.08,3.37.1.84.44,1.7.88,2.43,1.12,1.85,2.88,3.09,4.55,4.4.06.05.16.05.29.04.2-.01.3-.26.17-.41-.08-.09-.14-.16-.2-.23-1.12-1.21-2.28-2.38-3.35-3.64-.43-.51-.75-1.16-.96-1.8-.41-1.25.51-2.38,1.81-2.46,1.38-.08,2.46.48,3.49,1.35.15.12.16.34.04.49-.41.5-.41,1.04-.27,1.68.2.89.82,1.44,1.44,1.98,1.79,1.55,3.67,2.97,6.09,3.35,1.48.23,2.77-.27,3.65-1.47.82-1.12.64-2.34-.03-3.49-1.05-1.79-2.52-3.22-4.09-4.55ZM106.56,50.39c1.07-.02,1.91-.9,1.89-1.96-.02-1.07-.9-1.91-1.96-1.89-1.07.02-1.91.9-1.89,1.96.02,1.07.9,1.91,1.96,1.89ZM106.29,35.53c1.03-.02,1.85-.87,1.83-1.9-.02-1.03-.87-1.85-1.9-1.83-1.03.02-1.85.87-1.83,1.9.02,1.03.87,1.85,1.9,1.83ZM106.62,53.95c-1.05.02-1.89.89-1.87,1.94s.89,1.89,1.94,1.87c1.05-.02,1.89-.89,1.87-1.94-.02-1.05-.89-1.89-1.94-1.87ZM98.89,35.99c1.21-.02,2.18-1.02,2.16-2.24-.02-1.21-1.02-2.18-2.24-2.16-1.21.02-2.18,1.02-2.16,2.24.02,1.21,1.02,2.18,2.24,2.16ZM121.43,54.31c-.7.01-1.26.59-1.25,1.3s.59,1.26,1.3,1.25c.7-.01,1.26-.59,1.25-1.3-.01-.7-.59-1.26-1.3-1.25ZM106.01,20.56c.94-.02,1.69-.79,1.67-1.73-.02-.94-.79-1.69-1.73-1.67-.94.02-1.69.79-1.67,1.73.02.94.79,1.69,1.73,1.67ZM121.35,49.48c.71-.01,1.28-.6,1.27-1.32s-.6-1.28-1.32-1.27c-.71.01-1.28.6-1.27,1.32s.6,1.28,1.32,1.27ZM106.15,28.07c1-.02,1.79-.84,1.77-1.84-.02-1-.84-1.79-1.84-1.77-1,.02-1.79.84-1.77,1.84.02,1,.84,1.79,1.84,1.77ZM98.62,21.01c1.11-.02,1.99-.94,1.97-2.05-.01-.69-.38-1.3-.92-1.65l-3.05,1.24c-.04.15-.05.32-.05.48.02,1.11.94,1.99,2.05,1.97ZM98.76,28.51c1.17-.02,2.1-.98,2.07-2.15-.02-1.17-.98-2.1-2.15-2.07-1.17.02-2.1.98-2.07,2.15.02,1.17.99,2.1,2.15,2.07ZM84.24,44.34c1.59-.03,2.85-1.34,2.82-2.93-.03-1.59-1.34-2.85-2.93-2.82-1.59.03-2.85,1.34-2.82,2.93.03,1.59,1.34,2.85,2.93,2.82ZM84.38,51.76c1.6-.03,2.87-1.35,2.84-2.95-.03-1.6-1.35-2.87-2.95-2.84-1.6.03-2.87,1.35-2.84,2.95.03,1.6,1.35,2.87,2.95,2.84ZM84.11,36.88c1.55-.03,2.79-1.31,2.76-2.86-.03-1.55-1.31-2.79-2.86-2.76-1.55.03-2.79,1.31-2.76,2.86.03,1.55,1.31,2.79,2.86,2.76ZM99.22,53.76c-1.24.02-2.22,1.04-2.2,2.28.02,1.24,1.04,2.22,2.28,2.2,1.24-.02,2.22-1.04,2.2-2.28-.02-1.24-1.04-2.22-2.28-2.2ZM99.03,43.43c1.24-.02,2.22-1.04,2.2-2.28-.02-1.24-1.04-2.22-2.28-2.2-1.24.02-2.22,1.04-2.2,2.28.02,1.24,1.04,2.22,2.28,2.2ZM99.17,50.85c1.25-.02,2.24-1.05,2.22-2.3-.02-1.25-1.05-2.24-2.3-2.22-1.25.02-2.24,1.05-2.22,2.3.02,1.25,1.05,2.24,2.3,2.22ZM134.38,11.48c.7-.01,1.26-.59,1.25-1.3-.01-.7-.59-1.26-1.3-1.25-.7.01-1.26.59-1.25,1.3.01.7.59,1.26,1.3,1.25ZM166.64,24.33c-.7.01-1.26.59-1.25,1.3.01.7.59,1.26,1.3,1.25.7-.01,1.26-.59,1.25-1.3-.01-.7-.59-1.26-1.3-1.25ZM134.34,48.06c-.52,0-.94.44-.93.96,0,.52.44.94.96.93.52,0,.94-.44.93-.96,0-.52-.44-.94-.96-.93ZM156.91,32.84c0,.52.44.94.96.93.52,0,.94-.44.93-.96,0-.52-.44-.94-.96-.93-.52,0-.94.44-.93.96ZM145.64,52.72c-.68.01-1.22.57-1.21,1.25s.57,1.22,1.25,1.21c.68-.01,1.22-.57,1.21-1.25s-.57-1.22-1.25-1.21ZM120.66,12.17c.54,0,.98-.46.97-1,0-.54-.46-.98-1-.97-.54,0-.98.46-.97,1,0,.54.46.98,1,.97ZM132.24,19.59c.48,0,.85-.4.85-.88,0-.48-.4-.85-.88-.85-.48,0-.85.4-.85.88,0,.48.4.85.88.85ZM83.97,29.39c1.51-.03,2.71-1.27,2.68-2.78-.03-1.51-1.27-2.71-2.78-2.68-.28,0-.54.05-.79.13l-.34.14c-.93.45-1.57,1.41-1.55,2.51.03,1.51,1.27,2.71,2.78,2.68ZM121.87,18.57c-.01-.6-.51-1.08-1.11-1.07-.6.01-1.08.51-1.07,1.11.01.6.51,1.08,1.11,1.07.6-.01,1.08-.51,1.07-1.11ZM144.76,28.53c0,.5.42.9.92.89.5,0,.9-.42.89-.92,0-.5-.42-.9-.92-.89-.5,0-.9.42-.89.92ZM145.85,4.72c-.01-.65-.55-1.16-1.19-1.15-.65.01-1.16.54-1.15,1.19.01.65.55,1.16,1.19,1.15.65-.01,1.16-.55,1.15-1.19ZM140.82,11.5c-.37,0-.67.32-.66.69,0,.37.32.67.69.66.37,0,.67-.32.66-.69,0-.37-.32-.67-.69-.66ZM151.02,51.54c-.37,0-.67.32-.66.69,0,.37.32.67.69.66.37,0,.67-.32.66-.69,0-.37-.32-.67-.69-.66ZM113.82,42.5c.87-.02,1.57-.74,1.55-1.61-.02-.87-.74-1.57-1.61-1.55-.87.02-1.57.74-1.55,1.61.02.87.74,1.57,1.61,1.55ZM113.41,20.12c.77-.01,1.38-.65,1.37-1.42-.01-.77-.65-1.38-1.42-1.37-.77.01-1.38.65-1.37,1.42.01.77.65,1.38,1.42,1.37ZM113.54,27.6c.82-.01,1.47-.69,1.45-1.5-.01-.82-.69-1.47-1.5-1.45-.82.01-1.47.69-1.45,1.5.01.82.69,1.47,1.5,1.45ZM84.41,53.39c-1.59.03-2.85,1.34-2.82,2.93.03,1.43,1.09,2.59,2.45,2.79h.84c1.41-.21,2.48-1.43,2.45-2.89-.03-1.59-1.34-2.85-2.92-2.82ZM114.03,54.14c-.87.02-1.57.74-1.55,1.61.02.87.74,1.57,1.61,1.55.87-.02,1.57-.74,1.55-1.61-.02-.87-.74-1.57-1.61-1.55ZM77,53.2c-1.77.03-3.17,1.49-3.14,3.26.02,1.12.61,2.09,1.49,2.64h3.42c.91-.58,1.51-1.6,1.49-2.76-.03-1.77-1.49-3.17-3.26-3.14ZM66.1,56.6c.01.77-.21,1.49-.59,2.1l-.28.39s0,0,0,0H5.79c-1.87,0-2.37-2.58-.64-3.28l46.07-18.77,13.16-5.36c.74.67,1.22,1.63,1.24,2.71.03,1.78-1.19,3.3-2.85,3.71,1.72.35,3.03,1.86,3.07,3.69.03,1.76-1.12,3.26-2.72,3.74,1.61.42,2.81,1.85,2.88,3.58,0-1.93,1.55-3.5,3.48-3.54,1.96-.04,3.58,1.52,3.61,3.48.04,1.96-1.52,3.58-3.48,3.61-1.93.04-3.53-1.48-3.61-3.41,0,1.73-1.15,3.21-2.74,3.68,1.62.43,2.83,1.88,2.86,3.64ZM14.1,53.85h0s0,0,0,0h0ZM21.5,53.72h0,0s0,0,0,0ZM52.75,45.72c-.66-.33-1.22-.83-1.63-1.45-.32.59-.77,1.11-1.32,1.5.56.37,1.02.85,1.37,1.42.39-.62.93-1.13,1.57-1.47ZM56.29,38.23c.97.44,1.74,1.23,2.14,2.21.46-1.14,1.44-2,2.66-2.3-1.26-.26-2.29-1.16-2.74-2.35-.32,1.06-1.07,1.94-2.05,2.44ZM56.57,45.65c.9.44,1.61,1.19,2.01,2.12.44-1.04,1.33-1.85,2.44-2.19-1.13-.3-2.06-1.1-2.53-2.15-.35.95-1.03,1.74-1.92,2.22ZM61.15,53c-1.11-.29-2.03-1.07-2.52-2.09-.36.94-1.05,1.72-1.93,2.19.9.45,1.61,1.21,2,2.15.43-1.07,1.33-1.9,2.45-2.24ZM69.6,53.01c-1.95.04-3.5,1.64-3.46,3.59.02.85.33,1.62.84,2.22l.28.29h4.82c.7-.66,1.13-1.6,1.11-2.63-.04-1.95-1.64-3.5-3.59-3.46ZM91.36,28.95c1.34-.02,2.4-1.13,2.38-2.47-.02-1.34-1.13-2.4-2.47-2.38-1.34.02-2.4,1.13-2.38,2.47.02,1.34,1.13,2.4,2.47,2.38ZM76.85,44.8c1.77-.03,3.17-1.49,3.14-3.26-.03-1.77-1.49-3.17-3.26-3.14-1.77.03-3.17,1.49-3.14,3.26.03,1.77,1.49,3.17,3.26,3.14ZM76.99,52.22c1.78-.03,3.19-1.5,3.16-3.28-.03-1.78-1.5-3.2-3.28-3.16-1.78.03-3.19,1.5-3.16,3.28.03,1.78,1.5,3.19,3.28,3.16ZM76.71,37.34c1.73-.03,3.11-1.46,3.08-3.2-.03-1.73-1.46-3.11-3.2-3.08-1.73.03-3.11,1.46-3.08,3.2.03,1.73,1.46,3.11,3.2,3.08ZM91.81,53.56c-1.42.03-2.54,1.2-2.52,2.61.03,1.42,1.2,2.54,2.61,2.52,1.42-.03,2.54-1.2,2.52-2.61-.03-1.42-1.2-2.54-2.61-2.52ZM69.33,38.23c-1.94.04-3.48,1.64-3.44,3.57.04,1.94,1.64,3.48,3.57,3.44,1.94-.04,3.48-1.64,3.44-3.57-.04-1.94-1.64-3.48-3.57-3.44ZM91.5,36.43c1.38-.03,2.48-1.17,2.46-2.55-.03-1.38-1.17-2.48-2.55-2.46-1.38.03-2.48,1.17-2.46,2.55s1.17,2.48,2.55,2.46ZM76.58,29.84c1.68-.03,3.01-1.42,2.98-3.09,0-.41-.1-.79-.25-1.14l-5.62,2.29c.45,1.16,1.58,1.97,2.89,1.94ZM91.77,51.31c1.43-.03,2.56-1.2,2.54-2.63-.03-1.43-1.2-2.56-2.63-2.54-1.43.03-2.56,1.2-2.54,2.63.03,1.43,1.2,2.56,2.63,2.54ZM91.64,43.87c1.41-.03,2.52-1.19,2.5-2.59-.03-1.41-1.19-2.52-2.59-2.5-1.41.03-2.52,1.19-2.5,2.59.03,1.41,1.19,2.52,2.59,2.5ZM69.32,37.78c1.9-.03,3.42-1.61,3.38-3.51-.03-1.9-1.61-3.42-3.51-3.38-1.9.03-3.42,1.61-3.38,3.51.03,1.9,1.61,3.42,3.51,3.38Z"/>
</svg>