<svg xmlns="http://www.w3.org/2000/svg" xmlns:xlink="http://www.w3.org/1999/xlink" width="222.317" height="86.264" viewBox="0 0 222.317 86.264">
  <defs>
    <clipPath id="clip-path">
      <path id="Trazado_1" data-name="Trazado 1" d="M598.478,523.976c0,7.956,7.468,15.146,16.457,19.791.336.173.578-.248.319-.523-4.921-5.226-7.659-10.366-7.659-16.935,0-13.992,15.092-25.454,37.023-25.454a60.079,60.079,0,0,1,13.906,1.6.363.363,0,0,0,.2-.7,58.178,58.178,0,0,0-18.814-3.018c-21.934,0-41.435,11.249-41.435,25.24" transform="translate(-598.478 -498.736)" fill="#fff"/>
    </clipPath>
    <clipPath id="clip-path-2">
      <path id="Trazado_2" data-name="Trazado 2" d="M593.338,514.467a37.118,37.118,0,0,0-.513,7.228c0,18.551,13.715,32.765,30.589,33.59,14.915.73,30.99-11.458,28.343-28.947-.176-1.165-1.647-1.613-2.085-.518-4.428,11.06-13.191,20.218-26.22,20.218-16.894,0-29.3-12.168-29.645-31.421a.3.3,0,0,0-.291-.291.175.175,0,0,0-.178.141" transform="translate(-592.825 -514.326)" fill="#fff"/>
    </clipPath>
    <clipPath id="clip-path-3">
      <path id="Trazado_3" data-name="Trazado 3" d="M632.953,507.189c11.6,4.926,20.957,14.959,20.957,27.461,0,17.161-16.4,31.073-35.1,30.863-.263,0-.309.465-.052.534a31.376,31.376,0,0,0,5.309.311c18.7,0,40.12-14.1,40.12-31.261,0-14.089-16.491-25.981-30.576-29.788a1.185,1.185,0,0,0-.295-.04,1,1,0,0,0-.361,1.92" transform="translate(-618.584 -505.27)" fill="#fff"/>
    </clipPath>
  </defs>
  <g id="Grupo_7" data-name="Grupo 7" transform="translate(-510.825 -71.736)">
    <g id="Grupo_6" data-name="Grupo 6" transform="translate(510.825 71.736)">
      <g id="Grupo_1" data-name="Grupo 1" transform="translate(7.473 0)" clip-path="url(#clip-path)">
        <rect id="Rectángulo_1" data-name="Rectángulo 1" width="74.97" height="74.78" transform="matrix(0.713, -0.701, 0.701, 0.713, -22.599, 22.208)" fill="#fff"/>
      </g>
      <g id="Grupo_3" data-name="Grupo 3" transform="translate(0 20.61)" clip-path="url(#clip-path-2)">
        <rect id="Rectángulo_2" data-name="Rectángulo 2" width="61.579" height="41.689" transform="translate(0)" fill="#fff"/>
      </g>
      <g id="Grupo_5" data-name="Grupo 5" transform="translate(34.055 8.638)" clip-path="url(#clip-path-3)">
        <rect id="Rectángulo_3" data-name="Rectángulo 3" width="52.109" height="65.729" transform="matrix(0.994, -0.11, 0.11, 0.994, -6.744, 0.734)" fill="#fff"/>
      </g>
      <path id="Trazado_4" data-name="Trazado 4" d="M597.763,565.149a3.114,3.114,0,0,1-1.14-1.184,3.369,3.369,0,0,1-.416-1.659,3.325,3.325,0,0,1,.416-1.646,3.153,3.153,0,0,1,1.14-1.185,3.036,3.036,0,0,1,1.6-.438,3.179,3.179,0,0,1,1.073.164,3.242,3.242,0,0,1,.919.539.384.384,0,0,1,.131.151.48.48,0,0,1,.033.184.344.344,0,0,1-.119.27.39.39,0,0,1-.273.106.437.437,0,0,1-.285-.106,2.4,2.4,0,0,0-.653-.412,2.262,2.262,0,0,0-.825-.127,2.163,2.163,0,0,0-1.173.336,2.41,2.41,0,0,0-.85.911,2.664,2.664,0,0,0,0,2.512,2.426,2.426,0,0,0,.85.907,2.162,2.162,0,0,0,1.173.335,2.474,2.474,0,0,0,1.5-.539.472.472,0,0,1,.268-.1.336.336,0,0,1,.258.111.406.406,0,0,1,.1.29.421.421,0,0,1-.13.3,3.109,3.109,0,0,1-2,.71,3.054,3.054,0,0,1-1.6-.432" transform="translate(-591.736 -479.317)" fill="#fff"/>
      <path id="Trazado_5" data-name="Trazado 5" d="M601.353,565.357a.415.415,0,0,1-.122-.3v-5.531a.412.412,0,0,1,.122-.307.417.417,0,0,1,.3-.118h3.692a.416.416,0,0,1,.3.11.381.381,0,0,1,.114.289.357.357,0,0,1-.114.278.426.426,0,0,1-.3.107H602.08v1.984h2.344a.416.416,0,0,1,.3.111.364.364,0,0,1,.119.281.368.368,0,0,1-.119.282.416.416,0,0,1-.3.111H602.08V564.7h3.268a.425.425,0,0,1,.3.106.356.356,0,0,1,.114.278.381.381,0,0,1-.114.289.416.416,0,0,1-.3.111h-3.692a.411.411,0,0,1-.3-.123" transform="translate(-590.118 -479.297)" fill="#fff"/>
      <path id="Trazado_6" data-name="Trazado 6" d="M605.675,565.361a.412.412,0,0,1-.119-.305v-5.531a.415.415,0,0,1,.119-.307.4.4,0,0,1,.3-.118.41.41,0,0,1,.18.044.459.459,0,0,1,.147.111l3.563,4.738v-4.469a.407.407,0,0,1,.123-.307.416.416,0,0,1,.3-.118.4.4,0,0,1,.3.118.419.419,0,0,1,.119.307v5.531a.416.416,0,0,1-.119.305.405.405,0,0,1-.3.119.514.514,0,0,1-.184-.037.3.3,0,0,1-.143-.111l-3.562-4.738v4.462a.423.423,0,0,1-.119.3.408.408,0,0,1-.307.123.4.4,0,0,1-.3-.119" transform="translate(-588.725 -479.297)" fill="#fff"/>
      <path id="Trazado_7" data-name="Trazado 7" d="M615.2,559.208a.392.392,0,0,1,.111.283.38.38,0,0,1-.394.393h-1.755v5.171a.414.414,0,0,1-.123.3.425.425,0,0,1-.727-.3v-5.171h-1.764a.378.378,0,0,1-.393-.393.391.391,0,0,1,.11-.283.38.38,0,0,1,.283-.108h4.369a.381.381,0,0,1,.283.108" transform="translate(-587.242 -479.297)" fill="#fff"/>
      <path id="Trazado_8" data-name="Trazado 8" d="M618.993,565.1a.371.371,0,0,1-.11.272.4.4,0,0,1-.3.111.413.413,0,0,1-.368-.2l-1.405-2.256h-1.193v2.035a.412.412,0,0,1-.119.3.427.427,0,0,1-.731-.3v-5.531a.407.407,0,0,1,.123-.307.423.423,0,0,1,.3-.118h1.47a2.288,2.288,0,0,1,1.083.253,1.831,1.831,0,0,1,.743.711,2.042,2.042,0,0,1,.266,1.046,1.816,1.816,0,0,1-1.1,1.707l1.251,2.011a.494.494,0,0,1,.082.27m-2.328-2.859a1.337,1.337,0,0,0,.915-.315,1.032,1.032,0,0,0,.36-.813,1.166,1.166,0,0,0-.36-.882,1.274,1.274,0,0,0-.915-.344h-1.046v2.353Z" transform="translate(-585.758 -479.297)" fill="#fff"/>
      <path id="Trazado_9" data-name="Trazado 9" d="M620.008,565.164A2.911,2.911,0,0,1,618.86,564a3.722,3.722,0,0,1,0-3.386,2.938,2.938,0,0,1,1.148-1.161,3.608,3.608,0,0,1,3.366,0,2.961,2.961,0,0,1,1.153,1.161,3.68,3.68,0,0,1,0,3.386,2.946,2.946,0,0,1-1.147,1.165,3.618,3.618,0,0,1-3.371,0m2.937-.682a2.319,2.319,0,0,0,.866-.9,2.768,2.768,0,0,0,0-2.549,2.307,2.307,0,0,0-.862-.9,2.569,2.569,0,0,0-2.508,0,2.3,2.3,0,0,0-.862.9,2.778,2.778,0,0,0,0,2.549,2.309,2.309,0,0,0,.866.9,2.527,2.527,0,0,0,2.5,0" transform="translate(-584.572 -479.317)" fill="#fff"/>
      <path id="Trazado_10" data-name="Trazado 10" d="M626.3,565.357a.41.41,0,0,1-.123-.3v-5.53a.407.407,0,0,1,.123-.307.416.416,0,0,1,.3-.119h1.478a3.277,3.277,0,0,1,1.642.408,2.9,2.9,0,0,1,1.12,1.132,3.6,3.6,0,0,1,0,3.3,2.882,2.882,0,0,1-1.12,1.135,3.25,3.25,0,0,1-1.642.41H626.6a.408.408,0,0,1-.3-.123m1.781-.629a2.364,2.364,0,0,0,1.212-.311,2.159,2.159,0,0,0,.834-.87,2.815,2.815,0,0,0,0-2.52,2.164,2.164,0,0,0-.834-.866,2.364,2.364,0,0,0-1.212-.311h-1.054v4.877Z" transform="translate(-582.085 -479.297)" fill="#fff"/>
      <path id="Trazado_11" data-name="Trazado 11" d="M631.136,565.357a.415.415,0,0,1-.122-.3v-5.531a.412.412,0,0,1,.122-.307.417.417,0,0,1,.3-.118h3.692a.416.416,0,0,1,.3.11.381.381,0,0,1,.114.289.357.357,0,0,1-.114.278.425.425,0,0,1-.3.107h-3.268v1.984h2.344a.416.416,0,0,1,.3.111.364.364,0,0,1,.119.281.368.368,0,0,1-.119.282.416.416,0,0,1-.3.111h-2.344V564.7h3.268a.425.425,0,0,1,.3.106.356.356,0,0,1,.114.278.381.381,0,0,1-.114.289.416.416,0,0,1-.3.111h-3.692a.411.411,0,0,1-.3-.123" transform="translate(-580.526 -479.297)" fill="#fff"/>
      <path id="Trazado_12" data-name="Trazado 12" d="M642.126,565.063a.4.4,0,0,1-.123.295.412.412,0,0,1-.3.121.428.428,0,0,1-.233-.068.394.394,0,0,1-.16-.192l-.456-1.145h-2.934l-.465,1.145a.46.46,0,0,1-.164.192.415.415,0,0,1-.229.068.39.39,0,0,1-.3-.125.426.426,0,0,1-.118-.3.527.527,0,0,1,.041-.188l2.3-5.482a.415.415,0,0,1,.4-.286.4.4,0,0,1,.4.286l2.3,5.5a.511.511,0,0,1,.041.18m-3.921-1.691h2.361l-1.167-2.909Z" transform="translate(-578.713 -479.297)" fill="#fff"/>
      <path id="Trazado_13" data-name="Trazado 13" d="M642.165,565.22a1.94,1.94,0,0,1-.895-.94.446.446,0,0,1-.04-.164.3.3,0,0,1,.089-.216.468.468,0,0,1,.246-.127.3.3,0,0,1,.082-.008.444.444,0,0,1,.25.078.47.47,0,0,1,.175.208,1.194,1.194,0,0,0,.58.539,2.081,2.081,0,0,0,.956.221,1.838,1.838,0,0,0,1.038-.282.884.884,0,0,0,.426-.773,1.048,1.048,0,0,0-.361-.8,1.853,1.853,0,0,0-1.094-.4,2.8,2.8,0,0,1-1.593-.592,1.56,1.56,0,0,1-.58-1.237,1.415,1.415,0,0,1,.3-.9,1.85,1.85,0,0,1,.817-.579,3.209,3.209,0,0,1,1.165-.2,2.282,2.282,0,0,1,1.183.286,2.449,2.449,0,0,1,.817.817.555.555,0,0,1,.1.295.348.348,0,0,1-.164.294.385.385,0,0,1-.213.057.442.442,0,0,1-.227-.061.408.408,0,0,1-.164-.168A1.561,1.561,0,0,0,644.5,560a1.653,1.653,0,0,0-.836-.192,1.875,1.875,0,0,0-1.006.241.776.776,0,0,0-.383.7.887.887,0,0,0,.343.71,2.333,2.333,0,0,0,1.225.376,2.564,2.564,0,0,1,1.52.593,1.685,1.685,0,0,1,.54,1.3,1.62,1.62,0,0,1-.32,1.009,1.918,1.918,0,0,1-.845.629,3.048,3.048,0,0,1-1.132.209,2.935,2.935,0,0,1-1.442-.359" transform="translate(-577.237 -479.315)" fill="#fff"/>
      <path id="Trazado_14" data-name="Trazado 14" d="M650.02,559.208a.392.392,0,0,1,.111.283.38.38,0,0,1-.394.393h-1.756v5.171a.428.428,0,0,1-.727.3.413.413,0,0,1-.123-.3v-5.171h-1.764a.378.378,0,0,1-.393-.393.391.391,0,0,1,.11-.283.381.381,0,0,1,.283-.108h4.369a.381.381,0,0,1,.283.108" transform="translate(-576.031 -479.297)" fill="#fff"/>
      <path id="Trazado_15" data-name="Trazado 15" d="M653.809,565.1a.372.372,0,0,1-.11.272.4.4,0,0,1-.3.111.413.413,0,0,1-.368-.2l-1.405-2.256h-1.192v2.035a.412.412,0,0,1-.119.3.406.406,0,0,1-.305.123.411.411,0,0,1-.3-.123.406.406,0,0,1-.123-.3v-5.531a.408.408,0,0,1,.123-.307.423.423,0,0,1,.3-.118h1.47a2.291,2.291,0,0,1,1.083.253,1.833,1.833,0,0,1,.743.711,2.044,2.044,0,0,1,.266,1.046,1.822,1.822,0,0,1-1.1,1.707l1.251,2.011a.5.5,0,0,1,.082.27m-2.328-2.859a1.337,1.337,0,0,0,.915-.315,1.032,1.032,0,0,0,.359-.813,1.166,1.166,0,0,0-.359-.882,1.274,1.274,0,0,0-.915-.344h-1.046v2.353Z" transform="translate(-574.546 -479.297)" fill="#fff"/>
      <path id="Trazado_16" data-name="Trazado 16" d="M654.823,565.164A2.913,2.913,0,0,1,653.675,564a3.723,3.723,0,0,1,0-3.386,2.94,2.94,0,0,1,1.147-1.161,3.609,3.609,0,0,1,3.366,0,2.961,2.961,0,0,1,1.153,1.161,3.68,3.68,0,0,1,0,3.386,2.946,2.946,0,0,1-1.147,1.165,3.619,3.619,0,0,1-3.371,0m2.938-.682a2.32,2.32,0,0,0,.866-.9,2.768,2.768,0,0,0,0-2.549,2.308,2.308,0,0,0-.862-.9,2.569,2.569,0,0,0-2.508,0,2.3,2.3,0,0,0-.862.9,2.779,2.779,0,0,0,0,2.549,2.31,2.31,0,0,0,.866.9,2.528,2.528,0,0,0,2.5,0" transform="translate(-573.36 -479.317)" fill="#fff"/>
      <path id="Trazado_17" data-name="Trazado 17" d="M658.915,565.357a.41.41,0,0,1-.123-.3v-5.531a.407.407,0,0,1,.123-.307.414.414,0,0,1,.3-.118h3.694a.413.413,0,0,1,.3.11.381.381,0,0,1,.114.289.357.357,0,0,1-.114.278.423.423,0,0,1-.3.107h-3.268v1.984h2.344a.419.419,0,0,1,.3.111.363.363,0,0,1,.118.281.367.367,0,0,1-.118.282.42.42,0,0,1-.3.111h-2.344v2.4a.427.427,0,0,1-.727.3" transform="translate(-571.581 -479.297)" fill="#fff"/>
      <path id="Trazado_18" data-name="Trazado 18" d="M663.165,565.923a.415.415,0,0,1-.122-.3v-5.531a.411.411,0,0,1,.122-.307.423.423,0,0,1,.3-.118.416.416,0,0,1,.306.118.409.409,0,0,1,.119.307v5.531a.428.428,0,0,1-.727.3m.033-7.079a.41.41,0,0,1-.114-.3.393.393,0,0,1,.1-.279l.8-.8a.4.4,0,0,1,.295-.123.4.4,0,0,1,.3.123.417.417,0,0,1,.119.3.368.368,0,0,1-.115.286l-.792.793a.389.389,0,0,1-.287.115.405.405,0,0,1-.3-.119" transform="translate(-570.212 -479.862)" fill="#fff"/>
      <path id="Trazado_19" data-name="Trazado 19" d="M665.592,565.22a1.939,1.939,0,0,1-.9-.94.445.445,0,0,1-.04-.164.3.3,0,0,1,.089-.216.467.467,0,0,1,.246-.127.3.3,0,0,1,.082-.008.444.444,0,0,1,.25.078.471.471,0,0,1,.175.208,1.194,1.194,0,0,0,.58.539,2.081,2.081,0,0,0,.956.221,1.837,1.837,0,0,0,1.038-.282.884.884,0,0,0,.426-.773,1.048,1.048,0,0,0-.361-.8,1.853,1.853,0,0,0-1.095-.4,2.8,2.8,0,0,1-1.593-.592,1.561,1.561,0,0,1-.58-1.237,1.416,1.416,0,0,1,.3-.9,1.851,1.851,0,0,1,.817-.579,3.21,3.21,0,0,1,1.165-.2,2.281,2.281,0,0,1,1.183.286,2.45,2.45,0,0,1,.818.817.566.566,0,0,1,.1.295.348.348,0,0,1-.164.294.386.386,0,0,1-.213.057.443.443,0,0,1-.227-.061.4.4,0,0,1-.164-.168,1.563,1.563,0,0,0-.553-.559,1.652,1.652,0,0,0-.836-.192,1.875,1.875,0,0,0-1.006.241.776.776,0,0,0-.383.7.887.887,0,0,0,.342.71,2.334,2.334,0,0,0,1.226.376,2.562,2.562,0,0,1,1.52.593,1.681,1.681,0,0,1,.539,1.3,1.619,1.619,0,0,1-.32,1.009,1.918,1.918,0,0,1-.845.629,3.048,3.048,0,0,1-1.132.209,2.935,2.935,0,0,1-1.442-.359" transform="translate(-569.693 -479.315)" fill="#fff"/>
      <path id="Trazado_20" data-name="Trazado 20" d="M669.3,565.357a.414.414,0,0,1-.122-.3v-5.531a.411.411,0,0,1,.122-.307.417.417,0,0,1,.3-.118.405.405,0,0,1,.424.424v5.531a.412.412,0,0,1-.119.3.4.4,0,0,1-.305.123.411.411,0,0,1-.3-.123" transform="translate(-568.238 -479.297)" fill="#fff"/>
      <path id="Trazado_21" data-name="Trazado 21" d="M672.386,565.149a3.113,3.113,0,0,1-1.14-1.184,3.366,3.366,0,0,1-.417-1.659,3.322,3.322,0,0,1,.417-1.646,3.152,3.152,0,0,1,1.14-1.185,3.036,3.036,0,0,1,1.6-.438,3.179,3.179,0,0,1,1.073.164,3.266,3.266,0,0,1,.92.539.393.393,0,0,1,.13.151.487.487,0,0,1,.033.184.343.343,0,0,1-.119.27.391.391,0,0,1-.274.106.438.438,0,0,1-.286-.106,2.4,2.4,0,0,0-.653-.412,2.261,2.261,0,0,0-.825-.127,2.162,2.162,0,0,0-1.172.336,2.412,2.412,0,0,0-.85.911,2.663,2.663,0,0,0,0,2.512,2.428,2.428,0,0,0,.85.907,2.161,2.161,0,0,0,1.172.335,2.473,2.473,0,0,0,1.5-.539.472.472,0,0,1,.268-.1.334.334,0,0,1,.258.111.4.4,0,0,1,.1.29.421.421,0,0,1-.13.3,3.109,3.109,0,0,1-2,.71,3.054,3.054,0,0,1-1.6-.432" transform="translate(-567.705 -479.317)" fill="#fff"/>
      <path id="Trazado_22" data-name="Trazado 22" d="M680.829,565.063a.4.4,0,0,1-.124.295.412.412,0,0,1-.3.121.428.428,0,0,1-.233-.068.4.4,0,0,1-.16-.192l-.456-1.145h-2.933l-.465,1.145a.459.459,0,0,1-.164.192.411.411,0,0,1-.229.068.39.39,0,0,1-.3-.125.426.426,0,0,1-.118-.3.527.527,0,0,1,.041-.188l2.3-5.482a.415.415,0,0,1,.4-.286.4.4,0,0,1,.4.286l2.3,5.5a.517.517,0,0,1,.042.18m-3.923-1.691h2.361l-1.167-2.909Z" transform="translate(-566.25 -479.297)" fill="#fff"/>
      <path id="Trazado_23" data-name="Trazado 23" d="M686.71,559.214a.4.4,0,0,1,.1.278.505.505,0,0,1-.082.27l-2.2,3.391v1.9a.42.42,0,0,1-.425.424.418.418,0,0,1-.417-.424v-1.9l-2.181-3.391a.479.479,0,0,1-.09-.262.369.369,0,0,1,.127-.286.429.429,0,0,1,.3-.114.365.365,0,0,1,.213.057.671.671,0,0,1,.163.18l1.913,3.03,1.943-3.063a.42.42,0,0,1,.376-.2.333.333,0,0,1,.258.114" transform="translate(-564.294 -479.297)" fill="#fff"/>
      <path id="Trazado_24" data-name="Trazado 24" d="M692.479,559.208a.392.392,0,0,1,.111.283.38.38,0,0,1-.394.393H690.44v5.171a.413.413,0,0,1-.123.3.436.436,0,0,1-.6,0,.413.413,0,0,1-.123-.3v-5.171h-1.764a.378.378,0,0,1-.392-.393.391.391,0,0,1,.11-.283.38.38,0,0,1,.283-.108h4.37a.381.381,0,0,1,.283.108" transform="translate(-562.358 -479.297)" fill="#fff"/>
      <path id="Trazado_25" data-name="Trazado 25" d="M692.166,565.357a.414.414,0,0,1-.122-.3v-5.531a.411.411,0,0,1,.122-.307.417.417,0,0,1,.3-.118h3.693a.417.417,0,0,1,.3.11.382.382,0,0,1,.114.289.358.358,0,0,1-.114.278.426.426,0,0,1-.3.107h-3.268v1.984h2.344a.416.416,0,0,1,.3.111.364.364,0,0,1,.119.281.368.368,0,0,1-.119.282.416.416,0,0,1-.3.111h-2.344V564.7h3.268a.426.426,0,0,1,.3.106.357.357,0,0,1,.114.278.382.382,0,0,1-.114.289.417.417,0,0,1-.3.111h-3.693a.411.411,0,0,1-.3-.123" transform="translate(-560.873 -479.297)" fill="#fff"/>
      <path id="Trazado_26" data-name="Trazado 26" d="M697.7,565.149a3.114,3.114,0,0,1-1.14-1.184,3.369,3.369,0,0,1-.417-1.659,3.325,3.325,0,0,1,.417-1.646,3.152,3.152,0,0,1,1.14-1.185,3.036,3.036,0,0,1,1.6-.438,3.178,3.178,0,0,1,1.073.164,3.238,3.238,0,0,1,.919.539.384.384,0,0,1,.131.151.48.48,0,0,1,.033.184.344.344,0,0,1-.119.27.391.391,0,0,1-.274.106.437.437,0,0,1-.285-.106,2.4,2.4,0,0,0-.653-.412,2.261,2.261,0,0,0-.825-.127,2.163,2.163,0,0,0-1.173.336,2.412,2.412,0,0,0-.85.911,2.664,2.664,0,0,0,0,2.512,2.428,2.428,0,0,0,.85.907,2.161,2.161,0,0,0,1.173.335,2.474,2.474,0,0,0,1.5-.539.472.472,0,0,1,.268-.1.336.336,0,0,1,.258.111.406.406,0,0,1,.1.29.421.421,0,0,1-.13.3,3.112,3.112,0,0,1-2,.71,3.054,3.054,0,0,1-1.6-.432" transform="translate(-559.552 -479.317)" fill="#fff"/>
      <path id="Trazado_27" data-name="Trazado 27" d="M701.289,565.361a.412.412,0,0,1-.119-.305v-5.531a.414.414,0,0,1,.119-.307.419.419,0,0,1,.477-.074.46.46,0,0,1,.147.111l3.563,4.738v-4.469a.407.407,0,0,1,.123-.307.416.416,0,0,1,.3-.118.4.4,0,0,1,.3.118.42.42,0,0,1,.119.307v5.531a.417.417,0,0,1-.119.305.4.4,0,0,1-.3.119.513.513,0,0,1-.184-.037.3.3,0,0,1-.143-.111l-3.562-4.738v4.462a.422.422,0,0,1-.119.3.438.438,0,0,1-.6,0" transform="translate(-557.934 -479.297)" fill="#fff"/>
      <path id="Trazado_28" data-name="Trazado 28" d="M707.631,565.164A2.912,2.912,0,0,1,706.484,564a3.733,3.733,0,0,1,0-3.386,2.939,2.939,0,0,1,1.147-1.161,3.609,3.609,0,0,1,3.366,0,2.964,2.964,0,0,1,1.154,1.161,3.68,3.68,0,0,1,0,3.386A2.94,2.94,0,0,1,711,565.164a3.618,3.618,0,0,1-3.371,0m2.939-.682a2.316,2.316,0,0,0,.865-.9,2.769,2.769,0,0,0,0-2.549,2.3,2.3,0,0,0-.861-.9,2.572,2.572,0,0,0-2.509,0,2.3,2.3,0,0,0-.86.9,2.769,2.769,0,0,0,0,2.549,2.316,2.316,0,0,0,.865.9,2.53,2.53,0,0,0,2.5,0" transform="translate(-556.354 -479.317)" fill="#fff"/>
      <path id="Trazado_29" data-name="Trazado 29" d="M712.11,565.357a.417.417,0,0,1-.119-.3v-5.531a.41.41,0,0,1,.123-.3.4.4,0,0,1,.294-.122.418.418,0,0,1,.426.424v5.106h2.958a.425.425,0,1,1,0,.85h-3.383a.393.393,0,0,1-.3-.123" transform="translate(-554.45 -479.297)" fill="#fff"/>
      <path id="Trazado_30" data-name="Trazado 30" d="M716.859,565.164A2.911,2.911,0,0,1,715.712,564a3.723,3.723,0,0,1,0-3.386,2.938,2.938,0,0,1,1.148-1.161,3.608,3.608,0,0,1,3.366,0,2.961,2.961,0,0,1,1.153,1.161,3.679,3.679,0,0,1,0,3.386,2.945,2.945,0,0,1-1.147,1.165,3.618,3.618,0,0,1-3.371,0m2.937-.682a2.319,2.319,0,0,0,.866-.9,2.769,2.769,0,0,0,0-2.549,2.307,2.307,0,0,0-.862-.9,2.569,2.569,0,0,0-2.508,0,2.3,2.3,0,0,0-.862.9,2.779,2.779,0,0,0,0,2.549,2.311,2.311,0,0,0,.866.9,2.528,2.528,0,0,0,2.5,0" transform="translate(-553.382 -479.317)" fill="#fff"/>
      <path id="Trazado_31" data-name="Trazado 31" d="M726.04,562.309a.411.411,0,0,1,.118.305v1.954a.369.369,0,0,1-.131.3,3.171,3.171,0,0,1-3.6.279,3.117,3.117,0,0,1-1.14-1.186,3.376,3.376,0,0,1-.417-1.658,3.335,3.335,0,0,1,.417-1.646,3.133,3.133,0,0,1,1.14-1.185,3.027,3.027,0,0,1,1.6-.438,3.141,3.141,0,0,1,1.072.164,3.235,3.235,0,0,1,.919.538.376.376,0,0,1,.131.152.454.454,0,0,1,.033.184.347.347,0,0,1-.119.27.407.407,0,0,1-.28.106.437.437,0,0,1-.279-.106,2.345,2.345,0,0,0-.653-.412,2.255,2.255,0,0,0-.824-.127,2.164,2.164,0,0,0-1.174.335,2.422,2.422,0,0,0-.85.911,2.674,2.674,0,0,0,0,2.512,2.423,2.423,0,0,0,.85.908,2.163,2.163,0,0,0,1.174.335,2.388,2.388,0,0,0,1.315-.409v-1.454h-1.13a.438.438,0,0,1-.306-.107.366.366,0,0,1,0-.538.437.437,0,0,1,.306-.107h1.53a.406.406,0,0,1,.3.119" transform="translate(-551.59 -479.317)" fill="#fff"/>
      <path id="Trazado_32" data-name="Trazado 32" d="M726.016,565.923a.414.414,0,0,1-.12-.3v-5.531a.411.411,0,0,1,.12-.307.454.454,0,0,1,.61,0,.414.414,0,0,1,.118.307v5.531a.428.428,0,0,1-.727.3m.034-7.079a.406.406,0,0,1-.115-.3.4.4,0,0,1,.1-.279l.8-.8a.4.4,0,0,1,.295-.123.4.4,0,0,1,.3.123.418.418,0,0,1,.119.3.363.363,0,0,1-.115.286l-.792.793a.388.388,0,0,1-.287.115.4.4,0,0,1-.3-.119" transform="translate(-549.972 -479.862)" fill="#fff"/>
      <path id="Trazado_33" data-name="Trazado 33" d="M732.748,565.063a.4.4,0,0,1-.123.295.412.412,0,0,1-.3.121.427.427,0,0,1-.233-.068.4.4,0,0,1-.16-.192l-.456-1.145h-2.933l-.465,1.145a.457.457,0,0,1-.164.192.411.411,0,0,1-.229.068.39.39,0,0,1-.3-.125.426.426,0,0,1-.118-.3.522.522,0,0,1,.041-.188l2.3-5.482a.416.416,0,0,1,.4-.286.4.4,0,0,1,.4.286l2.3,5.5a.513.513,0,0,1,.041.18m-3.921-1.691h2.361l-1.167-2.909Z" transform="translate(-549.531 -479.297)" fill="#fff"/>
      <path id="Trazado_34" data-name="Trazado 34" d="M732.786,565.22a1.94,1.94,0,0,1-.9-.94.448.448,0,0,1-.04-.164.3.3,0,0,1,.089-.216.468.468,0,0,1,.246-.127.307.307,0,0,1,.082-.008.445.445,0,0,1,.25.078.471.471,0,0,1,.175.208,1.194,1.194,0,0,0,.58.539,2.081,2.081,0,0,0,.956.221,1.838,1.838,0,0,0,1.038-.282.884.884,0,0,0,.426-.773,1.048,1.048,0,0,0-.361-.8,1.854,1.854,0,0,0-1.095-.4,2.8,2.8,0,0,1-1.593-.592,1.56,1.56,0,0,1-.581-1.237,1.416,1.416,0,0,1,.3-.9,1.851,1.851,0,0,1,.817-.579,3.209,3.209,0,0,1,1.165-.2,2.283,2.283,0,0,1,1.183.286,2.45,2.45,0,0,1,.817.817.557.557,0,0,1,.1.295.348.348,0,0,1-.164.294.385.385,0,0,1-.213.057.442.442,0,0,1-.227-.061.408.408,0,0,1-.164-.168,1.561,1.561,0,0,0-.553-.559,1.653,1.653,0,0,0-.836-.192,1.874,1.874,0,0,0-1.006.241.776.776,0,0,0-.384.7.886.886,0,0,0,.343.71,2.331,2.331,0,0,0,1.225.376,2.561,2.561,0,0,1,1.521.593,1.685,1.685,0,0,1,.539,1.3,1.619,1.619,0,0,1-.32,1.009,1.919,1.919,0,0,1-.845.629,3.046,3.046,0,0,1-1.132.209,2.935,2.935,0,0,1-1.442-.359" transform="translate(-548.054 -479.315)" fill="#fff"/>
      <path id="Trazado_35" data-name="Trazado 35" d="M743.154,565.063a.4.4,0,0,1-.123.295.412.412,0,0,1-.3.121.427.427,0,0,1-.233-.068.394.394,0,0,1-.16-.192l-.456-1.145h-2.934l-.465,1.145a.459.459,0,0,1-.164.192.415.415,0,0,1-.229.068.39.39,0,0,1-.3-.125.426.426,0,0,1-.118-.3.527.527,0,0,1,.041-.188l2.295-5.482a.416.416,0,0,1,.4-.286.4.4,0,0,1,.4.286l2.3,5.5a.511.511,0,0,1,.041.18m-3.921-1.691h2.361l-1.167-2.909Z" transform="translate(-546.179 -479.297)" fill="#fff"/>
      <path id="Trazado_36" data-name="Trazado 36" d="M742.257,565.357a.411.411,0,0,1-.123-.3v-5.531a.408.408,0,0,1,.123-.307.414.414,0,0,1,.3-.118h3.694a.413.413,0,0,1,.3.11.382.382,0,0,1,.114.289.357.357,0,0,1-.114.278.423.423,0,0,1-.3.107h-3.268v1.984h2.344a.42.42,0,0,1,.3.111.363.363,0,0,1,.118.281.367.367,0,0,1-.118.282.42.42,0,0,1-.3.111h-2.344v2.4a.427.427,0,0,1-.727.3" transform="translate(-544.742 -479.297)" fill="#fff"/>
      <path id="Trazado_37" data-name="Trazado 37" d="M746.508,565.357a.414.414,0,0,1-.122-.3v-5.531a.411.411,0,0,1,.122-.307.416.416,0,0,1,.3-.118.406.406,0,0,1,.424.424v5.531a.411.411,0,0,1-.119.3.4.4,0,0,1-.305.123.41.41,0,0,1-.3-.123" transform="translate(-543.373 -479.297)" fill="#fff"/>
      <path id="Trazado_38" data-name="Trazado 38" d="M748.383,565.361a.412.412,0,0,1-.119-.305v-5.531a.414.414,0,0,1,.119-.307.419.419,0,0,1,.477-.074.457.457,0,0,1,.147.111l3.563,4.738v-4.469a.407.407,0,0,1,.123-.307.416.416,0,0,1,.3-.118.4.4,0,0,1,.3.118.42.42,0,0,1,.119.307v5.531a.417.417,0,0,1-.119.305.405.405,0,0,1-.3.119.513.513,0,0,1-.184-.037.3.3,0,0,1-.143-.111l-3.562-4.738v4.462a.423.423,0,0,1-.119.3.438.438,0,0,1-.6,0" transform="translate(-542.769 -479.297)" fill="#fff"/>
      <path id="Trazado_39" data-name="Trazado 39" d="M753.514,565.357a.415.415,0,0,1-.122-.3v-5.531a.412.412,0,0,1,.122-.307.417.417,0,0,1,.3-.118h3.693a.416.416,0,0,1,.3.11.381.381,0,0,1,.114.289.357.357,0,0,1-.114.278.426.426,0,0,1-.3.107h-3.268v1.984h2.344a.416.416,0,0,1,.3.111.364.364,0,0,1,.119.281.368.368,0,0,1-.119.282.416.416,0,0,1-.3.111h-2.344V564.7h3.268a.425.425,0,0,1,.3.106.357.357,0,0,1,.114.278.381.381,0,0,1-.114.289.417.417,0,0,1-.3.111h-3.693a.411.411,0,0,1-.3-.123" transform="translate(-541.117 -479.297)" fill="#fff"/>
      <path id="Trazado_40" data-name="Trazado 40" d="M758.387,565.22a1.94,1.94,0,0,1-.895-.94.445.445,0,0,1-.04-.164.3.3,0,0,1,.089-.216.467.467,0,0,1,.246-.127.307.307,0,0,1,.082-.008.445.445,0,0,1,.25.078.471.471,0,0,1,.174.208,1.194,1.194,0,0,0,.58.539,2.08,2.08,0,0,0,.956.221,1.838,1.838,0,0,0,1.038-.282.884.884,0,0,0,.426-.773,1.048,1.048,0,0,0-.361-.8,1.853,1.853,0,0,0-1.095-.4,2.8,2.8,0,0,1-1.593-.592,1.56,1.56,0,0,1-.58-1.237,1.415,1.415,0,0,1,.3-.9,1.851,1.851,0,0,1,.817-.579,3.211,3.211,0,0,1,1.165-.2,2.281,2.281,0,0,1,1.183.286,2.463,2.463,0,0,1,.818.817.565.565,0,0,1,.1.295.349.349,0,0,1-.164.294.384.384,0,0,1-.213.057.443.443,0,0,1-.227-.061.409.409,0,0,1-.164-.168,1.56,1.56,0,0,0-.552-.559,1.653,1.653,0,0,0-.836-.192,1.874,1.874,0,0,0-1.006.241.776.776,0,0,0-.384.7.887.887,0,0,0,.343.71,2.333,2.333,0,0,0,1.225.376,2.561,2.561,0,0,1,1.52.593,1.681,1.681,0,0,1,.539,1.3,1.62,1.62,0,0,1-.32,1.009,1.916,1.916,0,0,1-.845.629,3.047,3.047,0,0,1-1.132.209,2.935,2.935,0,0,1-1.442-.359" transform="translate(-539.809 -479.315)" fill="#fff"/>
      <path id="Trazado_41" data-name="Trazado 41" d="M697.984,539.166c-.308.434-.624.857-.948,1.273a12.66,12.66,0,0,1-1.04,1.179,15.691,15.691,0,0,1-3.607,2.82,15.427,15.427,0,0,1-2.035,1.063,17.13,17.13,0,0,1-2.22.788,17.777,17.777,0,0,1-4.717.648,16.872,16.872,0,0,1-6.8-1.388,17.736,17.736,0,0,1-9.341-9.341,17.351,17.351,0,0,1,0-13.595,17.328,17.328,0,0,1,9.341-9.34,16.848,16.848,0,0,1,6.8-1.388,17.777,17.777,0,0,1,4.717.648,17.529,17.529,0,0,1,4.254,1.8,16.839,16.839,0,0,1,1.918,1.318,19.79,19.79,0,0,1,1.688,1.5,17.656,17.656,0,0,1,1.988,2.451,1.068,1.068,0,0,1,.139.994,1.262,1.262,0,0,1-.739.717l-3.423,1.387a1.655,1.655,0,0,1-1.133.069,1.805,1.805,0,0,1-.994-.624q-.232-.23-.461-.485c-.156-.169-.309-.331-.463-.485a11.716,11.716,0,0,0-1.04-.927,12.913,12.913,0,0,0-1.134-.784,9.222,9.222,0,0,0-1.248-.648q-.646-.278-1.294-.509a9.307,9.307,0,0,0-2.775-.416,10.591,10.591,0,0,0-4.345.925,11.086,11.086,0,0,0-3.469,2.544,13,13,0,0,0-2.359,3.653,11.179,11.179,0,0,0-.878,4.393,10.96,10.96,0,0,0,.878,4.392,12.988,12.988,0,0,0,2.359,3.654,10.882,10.882,0,0,0,7.814,3.468,9.311,9.311,0,0,0,2.775-.416q.648-.23,1.294-.508a9.357,9.357,0,0,0,1.248-.648,10,10,0,0,0,1.134-.809c.354-.293.7-.608,1.04-.948.153-.156.307-.316.463-.487s.307-.331.461-.485a1.93,1.93,0,0,1,.994-.647,1.583,1.583,0,0,1,1.133.045l3.423,1.388a1.255,1.255,0,0,1,.739.74,1.1,1.1,0,0,1-.139,1.015" transform="translate(-569.295 -494.501)" fill="#fff"/>
      <path id="Trazado_42" data-name="Trazado 42" d="M691.948,544.9l16.046-32.045a1.049,1.049,0,0,1,1.851,0L725.889,544.9a.877.877,0,0,1,.07.879.845.845,0,0,1-.809.37h-4.208a2.266,2.266,0,0,1-1.2-.37,1.987,1.987,0,0,1-.833-.924l-1.388-2.775a2.44,2.44,0,0,0-.855-.879,2.171,2.171,0,0,0-1.179-.37H702.353a2.288,2.288,0,0,0-1.2.37,2,2,0,0,0-.831.925l-1.34,2.729a2.348,2.348,0,0,1-.856.924,2.162,2.162,0,0,1-1.179.37h-4.208a.842.842,0,0,1-.809-.37.932.932,0,0,1,.022-.879m13.548-9.71h6.844a.831.831,0,0,0,.809-.393.985.985,0,0,0-.022-.9l-3.607-7.629c-.156-.37-.356-.555-.6-.555s-.446.185-.6.555l-3.653,7.629a.973.973,0,0,0,0,.925.9.9,0,0,0,.832.369" transform="translate(-560.943 -494.367)" fill="#fff"/>
      <path id="Trazado_43" data-name="Trazado 43" d="M741.028,518.039h-6.8a1.422,1.422,0,0,0-1.433,1.434V544.72a1.422,1.422,0,0,1-1.434,1.434h-3.607a1.422,1.422,0,0,1-1.433-1.434V519.473a1.422,1.422,0,0,0-1.435-1.434h-6.843a1.42,1.42,0,0,1-1.433-1.433v-2.868a1.421,1.421,0,0,1,1.433-1.433h22.982a1.422,1.422,0,0,1,1.433,1.433v2.868a1.422,1.422,0,0,1-1.433,1.433" transform="translate(-552.961 -494.366)" fill="#fff"/>
      <path id="Trazado_44" data-name="Trazado 44" d="M734.694,544.9l16.045-32.045a1.049,1.049,0,0,1,1.851,0L768.634,544.9a.877.877,0,0,1,.07.879.845.845,0,0,1-.809.37h-4.208a2.266,2.266,0,0,1-1.2-.37,1.986,1.986,0,0,1-.833-.924l-1.388-2.775a2.439,2.439,0,0,0-.855-.879,2.171,2.171,0,0,0-1.179-.37H745.1a2.287,2.287,0,0,0-1.2.37,2,2,0,0,0-.832.925l-1.341,2.729a2.348,2.348,0,0,1-.855.924,2.164,2.164,0,0,1-1.179.37H735.48a.843.843,0,0,1-.809-.37.931.931,0,0,1,.023-.879m13.548-9.71h6.844a.831.831,0,0,0,.809-.393.984.984,0,0,0-.023-.9l-3.606-7.629c-.156-.37-.355-.555-.6-.555s-.446.185-.6.555L747.41,533.9a.973.973,0,0,0,0,.925.9.9,0,0,0,.832.369" transform="translate(-547.178 -494.367)" fill="#fff"/>
    </g>
  </g>
</svg>
